<?xml version="1.0" encoding="UTF-8" standalone="no"?>
<!-- Created with Inkscape (http://www.inkscape.org/) -->

<svg
   xmlns:dc="http://purl.org/dc/elements/1.1/"
   xmlns:cc="http://creativecommons.org/ns#"
   xmlns:rdf="http://www.w3.org/1999/02/22-rdf-syntax-ns#"
   xmlns:svg="http://www.w3.org/2000/svg"
   xmlns="http://www.w3.org/2000/svg"
   xmlns:sodipodi="http://sodipodi.sourceforge.net/DTD/sodipodi-0.dtd"
   xmlns:inkscape="http://www.inkscape.org/namespaces/inkscape"
   id="svg2"
   version="1.1"
   inkscape:version="0.91pre3 r13670"
   xml:space="preserve"
   width="160mm"
   height="240mm"
   viewBox="0 0 566.92914 850.3937"
   sodipodi:docname="bote_mockup.svg"><metadata
     id="metadata8"><rdf:RDF><cc:Work
         rdf:about=""><dc:format>image/svg+xml</dc:format><dc:type
           rdf:resource="http://purl.org/dc/dcmitype/StillImage" /><dc:title></dc:title></cc:Work></rdf:RDF></metadata><defs
     id="defs6"><radialGradient
       fx="0"
       fy="0"
       cx="0"
       cy="0"
       r="1"
       gradientUnits="userSpaceOnUse"
       gradientTransform="matrix(610.56799,0,0,-610.56799,400,400)"
       spreadMethod="pad"
       id="radialGradient24"><stop
         style="stop-opacity:1;stop-color:#6d6e71"
         offset="0"
         id="stop26" /><stop
         style="stop-opacity:1;stop-color:#6d6e71"
         offset="0.44952411"
         id="stop28" /><stop
         style="stop-opacity:1;stop-color:#414042"
         offset="1"
         id="stop30" /></radialGradient><clipPath
       clipPathUnits="userSpaceOnUse"
       id="clipPath448"><path
         d="M 0,800 800,800 800,0 0,0 0,800 Z"
         id="path450"
         inkscape:connector-curvature="0" /></clipPath></defs><sodipodi:namedview
     pagecolor="#ffffff"
     bordercolor="#666666"
     borderopacity="1"
     objecttolerance="10"
     gridtolerance="10"
     guidetolerance="10"
     inkscape:pageopacity="0"
     inkscape:pageshadow="2"
     inkscape:window-width="1280"
     inkscape:window-height="961"
     id="namedview4"
     showgrid="false"
     units="mm"
     height="280mm"
     inkscape:zoom="0.472"
     inkscape:cx="394.179"
     inkscape:cy="596.79326"
     inkscape:window-x="1912"
     inkscape:window-y="-8"
     inkscape:window-maximized="1"
     inkscape:current-layer="g10" /><g
     id="g10"
     inkscape:groupmode="layer"
     inkscape:label="bote_mockup"
     transform="matrix(1.25,0,0,-1.25,0,850.3937)"><path
       d="m 438.2978,22.454223 -420.105003,0 0,626.276997 420.105003,0 0,-626.276997 z"
       style="fill:#f5f5f5;fill-opacity:1;fill-rule:nonzero;stroke:none"
       id="path34"
       inkscape:connector-curvature="0"
       inkscape:export-xdpi="90"
       inkscape:export-ydpi="90" /><path
       d="m 417.2378,541.21222 -377.984004,0 0,88.676 377.984004,0 0,-88.676 z"
       style="fill:#c63d0f;fill-opacity:1;fill-rule:nonzero;stroke:none"
       id="path36"
       inkscape:connector-curvature="0"
       inkscape:export-xdpi="90"
       inkscape:export-ydpi="90" /><path
       d="m 417.2378,86.745223 -377.984004,0 0,55.421997 377.984004,0 0,-55.421997 z"
       style="fill:#babcbe;fill-opacity:1;fill-rule:nonzero;stroke:none"
       id="path38"
       inkscape:connector-curvature="0"
       inkscape:export-xdpi="90"
       inkscape:export-ydpi="90" /><path
       d="m 417.2378,49.796223 -377.984004,0 0,31.775 377.984004,0 0,-31.775 z"
       style="fill:#cfd1d2;fill-opacity:1;fill-rule:nonzero;stroke:none"
       id="path40"
       inkscape:connector-curvature="0"
       inkscape:export-xdpi="90"
       inkscape:export-ydpi="90" /><path
       d="m 288.6558,307.69722 -249.402004,0 0,192.133 249.402004,0 0,-192.133 z"
       style="fill:#cfd1d2;fill-opacity:1;fill-rule:nonzero;stroke:none"
       id="path42"
       inkscape:connector-curvature="0"
       inkscape:export-xdpi="90"
       inkscape:export-ydpi="90" /><path
       d="m 205.1518,272.96622 -165.898004,0 0,28.08 165.898004,0 0,-28.08 z"
       style="fill:#babcbe;fill-opacity:1;fill-rule:nonzero;stroke:none"
       id="path44"
       inkscape:connector-curvature="0"
       inkscape:export-xdpi="90"
       inkscape:export-ydpi="90" /><path
       d="m 178.6288,307.69722 -139.375004,0 0,70.846 139.375004,0 0,-70.846 z"
       style="fill:#babcbe;fill-opacity:1;fill-rule:nonzero;stroke:none"
       id="path46"
       inkscape:connector-curvature="0"
       inkscape:export-xdpi="90"
       inkscape:export-ydpi="90" /><path
       d="m 417.2378,504.63322 -377.984004,0 0,3.325 377.984004,0 0,-3.325 z"
       style="fill:#babcbe;fill-opacity:1;fill-rule:nonzero;stroke:none"
       id="path48"
       inkscape:connector-curvature="0"
       inkscape:export-xdpi="90"
       inkscape:export-ydpi="90" /><path
       d="m 417.2378,533.45222 -121.932,0 0,-19.952 121.932,0 0,19.952 z"
       style="fill:#cfd1d2;fill-opacity:1;fill-rule:nonzero;stroke:none"
       id="path50"
       inkscape:connector-curvature="0"
       inkscape:export-xdpi="90"
       inkscape:export-ydpi="90" /><path
       d="m 417.2378,499.82922 -121.932,0 0,-19.952 121.932,0 0,19.952 z"
       style="fill:#babcbe;fill-opacity:1;fill-rule:nonzero;stroke:none"
       id="path52"
       inkscape:connector-curvature="0"
       inkscape:export-xdpi="90"
       inkscape:export-ydpi="90" /><path
       d="m 417.2378,475.99822 -98.653,0 0,-8.868 98.653,0 0,8.868 z"
       style="fill:#cfd1d2;fill-opacity:1;fill-rule:nonzero;stroke:none"
       id="path54"
       inkscape:connector-curvature="0"
       inkscape:export-xdpi="90"
       inkscape:export-ydpi="90" /><path
       d="m 417.2378,462.69722 -121.932,0 0,-8.868 121.932,0 0,8.868 z"
       style="fill:#cfd1d2;fill-opacity:1;fill-rule:nonzero;stroke:none"
       id="path56"
       inkscape:connector-curvature="0"
       inkscape:export-xdpi="90"
       inkscape:export-ydpi="90" /><path
       d="m 407.2608,449.39522 -111.955,0 0,-8.867 111.955,0 0,8.867 z"
       style="fill:#cfd1d2;fill-opacity:1;fill-rule:nonzero;stroke:none"
       id="path58"
       inkscape:connector-curvature="0"
       inkscape:export-xdpi="90"
       inkscape:export-ydpi="90" /><path
       d="m 417.2378,436.09422 -121.932,0 0,-8.868 121.932,0 0,8.868 z"
       style="fill:#cfd1d2;fill-opacity:1;fill-rule:nonzero;stroke:none"
       id="path60"
       inkscape:connector-curvature="0"
       inkscape:export-xdpi="90"
       inkscape:export-ydpi="90" /><path
       d="m 415.0208,422.79122 -119.715,0 0,-8.867 119.715,0 0,8.867 z"
       style="fill:#cfd1d2;fill-opacity:1;fill-rule:nonzero;stroke:none"
       id="path62"
       inkscape:connector-curvature="0"
       inkscape:export-xdpi="90"
       inkscape:export-ydpi="90" /><path
       d="m 417.2378,409.49022 -121.932,0 0,-8.867 121.932,0 0,8.867 z"
       style="fill:#cfd1d2;fill-opacity:1;fill-rule:nonzero;stroke:none"
       id="path64"
       inkscape:connector-curvature="0"
       inkscape:export-xdpi="90"
       inkscape:export-ydpi="90" /><path
       d="m 398.3938,396.18922 -103.088,0 0,-8.867 103.088,0 0,8.867 z"
       style="fill:#cfd1d2;fill-opacity:1;fill-rule:nonzero;stroke:none"
       id="path66"
       inkscape:connector-curvature="0"
       inkscape:export-xdpi="90"
       inkscape:export-ydpi="90" /><path
       d="m 417.2378,382.88622 -121.932,0 0,-8.867 121.932,0 0,8.867 z"
       style="fill:#cfd1d2;fill-opacity:1;fill-rule:nonzero;stroke:none"
       id="path68"
       inkscape:connector-curvature="0"
       inkscape:export-xdpi="90"
       inkscape:export-ydpi="90" /><path
       d="m 410.5858,369.58622 -115.279,0 0,-8.867 115.279,0 0,8.867 z"
       style="fill:#cfd1d2;fill-opacity:1;fill-rule:nonzero;stroke:none"
       id="path70"
       inkscape:connector-curvature="0"
       inkscape:export-xdpi="90"
       inkscape:export-ydpi="90" /><path
       d="m 417.2378,356.28522 -121.932,0 0,-8.867 121.932,0 0,8.867 z"
       style="fill:#cfd1d2;fill-opacity:1;fill-rule:nonzero;stroke:none"
       id="path72"
       inkscape:connector-curvature="0"
       inkscape:export-xdpi="90"
       inkscape:export-ydpi="90" /><path
       d="m 403.9348,342.98222 -108.629,0 0,-8.868 108.629,0 0,8.868 z"
       style="fill:#cfd1d2;fill-opacity:1;fill-rule:nonzero;stroke:none"
       id="path74"
       inkscape:connector-curvature="0"
       inkscape:export-xdpi="90"
       inkscape:export-ydpi="90" /><path
       d="m 417.2378,329.68122 -121.932,0 0,-8.867 121.932,0 0,8.867 z"
       style="fill:#cfd1d2;fill-opacity:1;fill-rule:nonzero;stroke:none"
       id="path76"
       inkscape:connector-curvature="0"
       inkscape:export-xdpi="90"
       inkscape:export-ydpi="90" /><path
       d="m 390.0798,316.56622 -94.773,0 0,-8.869 94.773,0 0,8.869 z"
       style="fill:#cfd1d2;fill-opacity:1;fill-rule:nonzero;stroke:none"
       id="path78"
       inkscape:connector-curvature="0"
       inkscape:export-xdpi="90"
       inkscape:export-ydpi="90" /><path
       d="m 161.9408,267.79222 -107.561004,0 0,-8.867 107.561004,0 0,8.867 z"
       style="fill:#cfd1d2;fill-opacity:1;fill-rule:nonzero;stroke:none"
       id="path80"
       inkscape:connector-curvature="0"
       inkscape:export-xdpi="90"
       inkscape:export-ydpi="90" /><path
       d="m 161.9408,254.49122 -122.688004,0 0,-8.867 122.688004,0 0,8.867 z"
       style="fill:#cfd1d2;fill-opacity:1;fill-rule:nonzero;stroke:none"
       id="path82"
       inkscape:connector-curvature="0"
       inkscape:export-xdpi="90"
       inkscape:export-ydpi="90" /><path
       d="m 161.9408,241.19122 -122.688004,0 0,-8.869 122.688004,0 0,8.869 z"
       style="fill:#cfd1d2;fill-opacity:1;fill-rule:nonzero;stroke:none"
       id="path84"
       inkscape:connector-curvature="0"
       inkscape:export-xdpi="90"
       inkscape:export-ydpi="90" /><path
       d="m 161.9408,227.88822 -122.688004,0 0,-8.867 122.688004,0 0,8.867 z"
       style="fill:#cfd1d2;fill-opacity:1;fill-rule:nonzero;stroke:none"
       id="path86"
       inkscape:connector-curvature="0"
       inkscape:export-xdpi="90"
       inkscape:export-ydpi="90" /><path
       d="m 161.9408,214.58722 -122.688004,0 0,-8.867 122.688004,0 0,8.867 z"
       style="fill:#cfd1d2;fill-opacity:1;fill-rule:nonzero;stroke:none"
       id="path88"
       inkscape:connector-curvature="0"
       inkscape:export-xdpi="90"
       inkscape:export-ydpi="90" /><path
       d="m 161.9408,201.28622 -122.688004,0 0,-8.869 122.688004,0 0,8.869 z"
       style="fill:#cfd1d2;fill-opacity:1;fill-rule:nonzero;stroke:none"
       id="path90"
       inkscape:connector-curvature="0"
       inkscape:export-xdpi="90"
       inkscape:export-ydpi="90" /><path
       d="m 161.9408,187.98422 -122.688004,0 0,-8.867 122.688004,0 0,8.867 z"
       style="fill:#cfd1d2;fill-opacity:1;fill-rule:nonzero;stroke:none"
       id="path92"
       inkscape:connector-curvature="0"
       inkscape:export-xdpi="90"
       inkscape:export-ydpi="90" /><path
       d="m 161.9408,174.68322 -122.688004,0 0,-8.867 122.688004,0 0,8.867 z"
       style="fill:#cfd1d2;fill-opacity:1;fill-rule:nonzero;stroke:none"
       id="path94"
       inkscape:connector-curvature="0"
       inkscape:export-xdpi="90"
       inkscape:export-ydpi="90" /><path
       d="m 136.5498,161.38022 -97.297004,0 0,-8.867 97.297004,0 0,8.867 z"
       style="fill:#cfd1d2;fill-opacity:1;fill-rule:nonzero;stroke:none"
       id="path96"
       inkscape:connector-curvature="0"
       inkscape:export-xdpi="90"
       inkscape:export-ydpi="90" /><path
       d="m 289.4388,267.79222 -107.561,0 0,-8.867 107.561,0 0,8.867 z"
       style="fill:#cfd1d2;fill-opacity:1;fill-rule:nonzero;stroke:none"
       id="path98"
       inkscape:connector-curvature="0"
       inkscape:export-xdpi="90"
       inkscape:export-ydpi="90" /><path
       d="m 289.4388,254.49122 -122.688,0 0,-8.867 122.688,0 0,8.867 z"
       style="fill:#cfd1d2;fill-opacity:1;fill-rule:nonzero;stroke:none"
       id="path100"
       inkscape:connector-curvature="0"
       inkscape:export-xdpi="90"
       inkscape:export-ydpi="90" /><path
       d="m 289.4388,241.19122 -122.688,0 0,-8.869 122.688,0 0,8.869 z"
       style="fill:#cfd1d2;fill-opacity:1;fill-rule:nonzero;stroke:none"
       id="path102"
       inkscape:connector-curvature="0"
       inkscape:export-xdpi="90"
       inkscape:export-ydpi="90" /><path
       d="m 289.4388,227.88822 -122.688,0 0,-8.867 122.688,0 0,8.867 z"
       style="fill:#cfd1d2;fill-opacity:1;fill-rule:nonzero;stroke:none"
       id="path104"
       inkscape:connector-curvature="0"
       inkscape:export-xdpi="90"
       inkscape:export-ydpi="90" /><path
       d="m 289.4388,214.58722 -122.688,0 0,-8.867 122.688,0 0,8.867 z"
       style="fill:#cfd1d2;fill-opacity:1;fill-rule:nonzero;stroke:none"
       id="path106"
       inkscape:connector-curvature="0"
       inkscape:export-xdpi="90"
       inkscape:export-ydpi="90" /><path
       d="m 289.4388,201.28622 -122.688,0 0,-8.869 122.688,0 0,8.869 z"
       style="fill:#cfd1d2;fill-opacity:1;fill-rule:nonzero;stroke:none"
       id="path108"
       inkscape:connector-curvature="0"
       inkscape:export-xdpi="90"
       inkscape:export-ydpi="90" /><path
       d="m 289.4388,187.98422 -122.688,0 0,-8.867 122.688,0 0,8.867 z"
       style="fill:#cfd1d2;fill-opacity:1;fill-rule:nonzero;stroke:none"
       id="path110"
       inkscape:connector-curvature="0"
       inkscape:export-xdpi="90"
       inkscape:export-ydpi="90" /><path
       d="m 289.4388,174.68322 -122.688,0 0,-8.867 122.688,0 0,8.867 z"
       style="fill:#cfd1d2;fill-opacity:1;fill-rule:nonzero;stroke:none"
       id="path112"
       inkscape:connector-curvature="0"
       inkscape:export-xdpi="90"
       inkscape:export-ydpi="90" /><path
       d="m 264.0488,161.38022 -97.298,0 0,-8.867 97.298,0 0,8.867 z"
       style="fill:#cfd1d2;fill-opacity:1;fill-rule:nonzero;stroke:none"
       id="path114"
       inkscape:connector-curvature="0"
       inkscape:export-xdpi="90"
       inkscape:export-ydpi="90" /><path
       d="m 416.9388,267.79222 -107.563,0 0,-8.867 107.563,0 0,8.867 z"
       style="fill:#cfd1d2;fill-opacity:1;fill-rule:nonzero;stroke:none"
       id="path116"
       inkscape:connector-curvature="0"
       inkscape:export-xdpi="90"
       inkscape:export-ydpi="90" /><path
       d="m 416.9388,254.49122 -122.689,0 0,-8.867 122.689,0 0,8.867 z"
       style="fill:#cfd1d2;fill-opacity:1;fill-rule:nonzero;stroke:none"
       id="path118"
       inkscape:connector-curvature="0"
       inkscape:export-xdpi="90"
       inkscape:export-ydpi="90" /><path
       d="m 416.9388,241.19122 -122.689,0 0,-8.869 122.689,0 0,8.869 z"
       style="fill:#cfd1d2;fill-opacity:1;fill-rule:nonzero;stroke:none"
       id="path120"
       inkscape:connector-curvature="0"
       inkscape:export-xdpi="90"
       inkscape:export-ydpi="90" /><path
       d="m 416.9388,227.88822 -122.689,0 0,-8.867 122.689,0 0,8.867 z"
       style="fill:#cfd1d2;fill-opacity:1;fill-rule:nonzero;stroke:none"
       id="path122"
       inkscape:connector-curvature="0"
       inkscape:export-xdpi="90"
       inkscape:export-ydpi="90" /><path
       d="m 416.9388,214.58722 -122.689,0 0,-8.867 122.689,0 0,8.867 z"
       style="fill:#cfd1d2;fill-opacity:1;fill-rule:nonzero;stroke:none"
       id="path124"
       inkscape:connector-curvature="0"
       inkscape:export-xdpi="90"
       inkscape:export-ydpi="90" /><path
       d="m 416.9388,201.28622 -122.689,0 0,-8.869 122.689,0 0,8.869 z"
       style="fill:#cfd1d2;fill-opacity:1;fill-rule:nonzero;stroke:none"
       id="path126"
       inkscape:connector-curvature="0"
       inkscape:export-xdpi="90"
       inkscape:export-ydpi="90" /><path
       d="m 416.9388,187.98422 -122.689,0 0,-8.867 122.689,0 0,8.867 z"
       style="fill:#cfd1d2;fill-opacity:1;fill-rule:nonzero;stroke:none"
       id="path128"
       inkscape:connector-curvature="0"
       inkscape:export-xdpi="90"
       inkscape:export-ydpi="90" /><path
       d="m 416.9388,174.68322 -122.689,0 0,-8.867 122.689,0 0,8.867 z"
       style="fill:#cfd1d2;fill-opacity:1;fill-rule:nonzero;stroke:none"
       id="path130"
       inkscape:connector-curvature="0"
       inkscape:export-xdpi="90"
       inkscape:export-ydpi="90" /><path
       d="m 391.5478,161.38022 -97.299,0 0,-8.867 97.299,0 0,8.867 z"
       style="fill:#cfd1d2;fill-opacity:1;fill-rule:nonzero;stroke:none"
       id="path132"
       inkscape:connector-curvature="0"
       inkscape:export-xdpi="90"
       inkscape:export-ydpi="90" /><path
       d="m 288.6558,533.45222 -249.402004,0 0,-19.952 249.402004,0 0,19.952 z"
       style="fill:#cfd1d2;fill-opacity:1;fill-rule:nonzero;stroke:none"
       id="path134"
       inkscape:connector-curvature="0"
       inkscape:export-xdpi="90"
       inkscape:export-ydpi="90" /><flowRoot
       xml:space="preserve"
       id="flowRoot4689"
       style="font-style:normal;font-weight:normal;font-size:67.5px;line-height:125%;font-family:sans-serif;letter-spacing:0px;word-spacing:0px;fill:#000000;fill-opacity:1;stroke:none;stroke-width:1px;stroke-linecap:butt;stroke-linejoin:miter;stroke-opacity:1"
       transform="matrix(0.8,0,0,-0.8,13.559322,683.70479)"
       inkscape:export-xdpi="90"
       inkscape:export-ydpi="90"><flowRegion
         id="flowRegion4691"><rect
           id="rect4693"
           width="461.86441"
           height="76.271187"
           x="57.203388"
           y="81.325882"
           style="font-size:67.5px" /></flowRegion><flowPara
         id="flowPara4695"
         style="font-style:normal;font-variant:normal;font-weight:normal;font-stretch:normal;font-size:67.5px;font-family:Canterbury;-inkscape-font-specification:Canterbury;fill:#ffffff;fill-opacity:1">Seegräbner Bote</flowPara></flowRoot><flowRoot
       xml:space="preserve"
       id="flowRoot4697"
       style="fill:black;stroke:none;stroke-opacity:1;stroke-width:1px;stroke-linejoin:miter;stroke-linecap:butt;fill-opacity:1;font-family:sans-serif;font-style:normal;font-weight:normal;font-size:40px;line-height:125%;letter-spacing:0px;word-spacing:0px"><flowRegion
         id="flowRegion4699"><rect
           id="rect4701"
           width="8.474576"
           height="72.033897"
           x="48.728813"
           y="939.37671" /></flowRegion><flowPara
         id="flowPara4703"></flowPara></flowRoot></g></svg>