<?xml version="1.0" encoding="UTF-8" standalone="no"?>
<!-- Created with Inkscape (http://www.inkscape.org/) -->

<svg
   xmlns:dc="http://purl.org/dc/elements/1.1/"
   xmlns:cc="http://creativecommons.org/ns#"
   xmlns:rdf="http://www.w3.org/1999/02/22-rdf-syntax-ns#"
   xmlns:svg="http://www.w3.org/2000/svg"
   xmlns="http://www.w3.org/2000/svg"
   xmlns:sodipodi="http://sodipodi.sourceforge.net/DTD/sodipodi-0.dtd"
   xmlns:inkscape="http://www.inkscape.org/namespaces/inkscape"
   id="svg2"
   version="1.1"
   inkscape:version="0.91pre3 r13670"
   xml:space="preserve"
   width="1000"
   height="1000"
   viewBox="0 0 1000 1000"
   sodipodi:docname="12618-NOJLQ4.svg"><metadata
     id="metadata8"><rdf:RDF><cc:Work
         rdf:about=""><dc:format>image/svg+xml</dc:format><dc:type
           rdf:resource="http://purl.org/dc/dcmitype/StillImage" /><dc:title></dc:title></cc:Work></rdf:RDF></metadata><defs
     id="defs6"><clipPath
       clipPathUnits="userSpaceOnUse"
       id="clipPath18"><path
         d="M 0,800 800,800 800,0 0,0 0,800 Z"
         id="path20"
         inkscape:connector-curvature="0" /></clipPath><clipPath
       clipPathUnits="userSpaceOnUse"
       id="clipPath150"><path
         d="m 153.835,738.525 628.809,0 0,-424.886 -628.809,0 0,424.886 z"
         id="path152"
         inkscape:connector-curvature="0" /></clipPath><clipPath
       clipPathUnits="userSpaceOnUse"
       id="clipPath154"><path
         d="m 153.835,734.054 567.973,0 0,-412.314 -567.973,0 0,412.314 z"
         id="path156"
         inkscape:connector-curvature="0" /></clipPath><clipPath
       clipPathUnits="userSpaceOnUse"
       id="clipPath158"><path
         d="m 155.725,734.268 568.979,0 0,-412.472 -568.979,0 0,412.472 z"
         id="path160"
         inkscape:connector-curvature="0" /></clipPath><clipPath
       clipPathUnits="userSpaceOnUse"
       id="clipPath162"><path
         d="m 157.613,734.48 569.989,0 0,-412.69 -569.989,0 0,412.69 z"
         id="path164"
         inkscape:connector-curvature="0" /></clipPath><clipPath
       clipPathUnits="userSpaceOnUse"
       id="clipPath166"><path
         d="m 159.502,734.693 570.997,0 0,-412.974 -570.997,0 0,412.974 z"
         id="path168"
         inkscape:connector-curvature="0" /></clipPath><clipPath
       clipPathUnits="userSpaceOnUse"
       id="clipPath170"><path
         d="m 161.392,734.906 572.004,0 0,-413.327 -572.004,0 0,413.327 z"
         id="path172"
         inkscape:connector-curvature="0" /></clipPath><clipPath
       clipPathUnits="userSpaceOnUse"
       id="clipPath174"><path
         d="m 163.28,735.119 573.012,0 0,-413.752 -573.012,0 0,413.752 z"
         id="path176"
         inkscape:connector-curvature="0" /></clipPath><clipPath
       clipPathUnits="userSpaceOnUse"
       id="clipPath178"><path
         d="m 165.169,735.332 574.02,0 0,-414.253 -574.02,0 0,414.253 z"
         id="path180"
         inkscape:connector-curvature="0" /></clipPath><clipPath
       clipPathUnits="userSpaceOnUse"
       id="clipPath182"><path
         d="m 167.058,735.544 575.029,0 0,-414.831 -575.029,0 0,414.831 z"
         id="path184"
         inkscape:connector-curvature="0" /></clipPath><clipPath
       clipPathUnits="userSpaceOnUse"
       id="clipPath186"><path
         d="m 168.947,735.757 576.036,0 0,-415.488 -576.036,0 0,415.488 z"
         id="path188"
         inkscape:connector-curvature="0" /></clipPath><clipPath
       clipPathUnits="userSpaceOnUse"
       id="clipPath190"><path
         d="m 170.836,735.97 577.044,0 0,-416.19 -577.044,0 0,416.19 z"
         id="path192"
         inkscape:connector-curvature="0" /></clipPath><clipPath
       clipPathUnits="userSpaceOnUse"
       id="clipPath194"><path
         d="m 172.725,736.183 578.052,0 0,-416.891 -578.052,0 0,416.891 z"
         id="path196"
         inkscape:connector-curvature="0" /></clipPath><clipPath
       clipPathUnits="userSpaceOnUse"
       id="clipPath198"><path
         d="m 174.614,736.396 579.06,0 0,-417.592 -579.06,0 0,417.592 z"
         id="path200"
         inkscape:connector-curvature="0" /></clipPath><clipPath
       clipPathUnits="userSpaceOnUse"
       id="clipPath202"><path
         d="m 176.502,736.609 580.069,0 0,-418.294 -580.069,0 0,418.294 z"
         id="path204"
         inkscape:connector-curvature="0" /></clipPath><clipPath
       clipPathUnits="userSpaceOnUse"
       id="clipPath206"><path
         d="m 178.391,736.822 581.077,0 0,-418.995 -581.077,0 0,418.995 z"
         id="path208"
         inkscape:connector-curvature="0" /></clipPath><clipPath
       clipPathUnits="userSpaceOnUse"
       id="clipPath210"><path
         d="m 180.28,737.035 582.085,0 0,-419.696 -582.085,0 0,419.696 z"
         id="path212"
         inkscape:connector-curvature="0" /></clipPath><clipPath
       clipPathUnits="userSpaceOnUse"
       id="clipPath214"><path
         d="m 182.168,737.248 583.094,0 0,-420.397 -583.094,0 0,420.397 z"
         id="path216"
         inkscape:connector-curvature="0" /></clipPath><clipPath
       clipPathUnits="userSpaceOnUse"
       id="clipPath218"><path
         d="m 184.057,737.46 584.102,0 0,-421.098 -584.102,0 0,421.098 z"
         id="path220"
         inkscape:connector-curvature="0" /></clipPath><clipPath
       clipPathUnits="userSpaceOnUse"
       id="clipPath222"><path
         d="m 185.945,737.673 585.111,0 0,-421.799 -585.111,0 0,421.799 z"
         id="path224"
         inkscape:connector-curvature="0" /></clipPath><clipPath
       clipPathUnits="userSpaceOnUse"
       id="clipPath226"><path
         d="m 187.834,737.887 586.119,0 0,-422.501 -586.119,0 0,422.501 z"
         id="path228"
         inkscape:connector-curvature="0" /></clipPath><clipPath
       clipPathUnits="userSpaceOnUse"
       id="clipPath230"><path
         d="m 189.723,738.1 587.127,0 0,-423.203 -587.127,0 0,423.203 z"
         id="path232"
         inkscape:connector-curvature="0" /></clipPath><clipPath
       clipPathUnits="userSpaceOnUse"
       id="clipPath234"><path
         d="m 191.611,738.312 588.136,0 0,-424.029 -588.136,0 0,424.029 z"
         id="path236"
         inkscape:connector-curvature="0" /></clipPath><clipPath
       clipPathUnits="userSpaceOnUse"
       id="clipPath238"><path
         d="m 193.499,738.525 589.145,0 0,-424.886 -589.145,0 0,424.886 z"
         id="path240"
         inkscape:connector-curvature="0" /></clipPath><clipPath
       clipPathUnits="userSpaceOnUse"
       id="clipPath530"><path
         d="M 0,800 800,800 800,0 0,0 0,800 Z"
         id="path532"
         inkscape:connector-curvature="0" /></clipPath><clipPath
       clipPathUnits="userSpaceOnUse"
       id="clipPath578"><path
         d="m 94.8154,319.516 289.7166,0 0,-171.351 -289.7166,0 0,171.351 z"
         id="path580"
         inkscape:connector-curvature="0" /></clipPath></defs><sodipodi:namedview
     pagecolor="#ffffff"
     bordercolor="#666666"
     borderopacity="1"
     objecttolerance="10"
     gridtolerance="10"
     guidetolerance="10"
     inkscape:pageopacity="0"
     inkscape:pageshadow="2"
     inkscape:window-width="1920"
     inkscape:window-height="1017"
     id="namedview4"
     showgrid="false"
     inkscape:zoom="0.6675088"
     inkscape:cx="488.90655"
     inkscape:cy="664.51837"
     inkscape:window-x="1672"
     inkscape:window-y="-8"
     inkscape:window-maximized="1"
     inkscape:current-layer="g10" /><g
     id="g10"
     inkscape:groupmode="layer"
     inkscape:label="12618-NOJLQ4"
     transform="matrix(1.25,0,0,-1.25,0,1000)"><path
       d="M 0,0 800,0 800,800 0,800 0,0 Z"
       style="fill:#80b9c3;fill-opacity:1;fill-rule:nonzero;stroke:none"
       id="path12"
       inkscape:connector-curvature="0" /><g
       id="g14"><g
         id="g16"
         clip-path="url(#clipPath18)"><g
           id="g22"
           transform="translate(283.3926,78.6465)"><path
             d="M 0,0 C 0,-0.703 0.108,-1.301 0.328,-1.795 0.545,-2.289 0.844,-2.66 1.225,-2.91 1.604,-3.16 2.02,-3.287 2.469,-3.287 c 0.455,0 0.871,0.119 1.25,0.357 0.375,0.237 0.677,0.602 0.902,1.092 0.225,0.49 0.336,1.106 0.336,1.838 0,0.691 -0.111,1.285 -0.336,1.783 C 4.396,2.279 4.092,2.658 3.709,2.922 3.326,3.184 2.905,3.314 2.451,3.314 1.976,3.314 1.551,3.18 1.178,2.912 0.804,2.643 0.515,2.258 0.309,1.754 0.103,1.25 0,0.666 0,0 m 5.101,-3.809 0,0.258 C 4.752,-3.949 4.408,-4.275 4.069,-4.523 3.73,-4.775 3.363,-4.965 2.967,-5.094 2.571,-5.227 2.141,-5.289 1.672,-5.289 c -0.621,0 -1.196,0.131 -1.726,0.393 -0.528,0.263 -0.985,0.638 -1.37,1.126 -0.389,0.487 -0.68,1.059 -0.88,1.719 -0.198,0.658 -0.3,1.371 -0.3,2.137 0,1.621 0.397,2.885 1.188,3.791 0.791,0.904 1.834,1.357 3.125,1.357 C 2.457,5.234 3.086,5.105 3.6,4.85 4.112,4.594 4.612,4.197 5.101,3.668 l 0,3.826 c 0,0.533 0.104,0.934 0.317,1.207 0.211,0.272 0.515,0.408 0.908,0.408 0.391,0 0.694,-0.125 0.905,-0.375 0.213,-0.252 0.32,-0.619 0.32,-1.107 l 0,-11.436 C 7.551,-4.303 7.437,-4.672 7.209,-4.92 6.98,-5.166 6.687,-5.289 6.326,-5.289 c -0.355,0 -0.648,0.127 -0.88,0.383 -0.231,0.258 -0.345,0.623 -0.345,1.097"
             style="fill:#ffffff;fill-opacity:1;fill-rule:nonzero;stroke:none"
             id="path24"
             inkscape:connector-curvature="0" /></g><g
           id="g26"
           transform="translate(294.8555,79.4629)"><path
             d="M 0,0 4.701,0 C 4.639,0.887 4.397,1.551 3.983,1.99 3.568,2.432 3.023,2.65 2.346,2.65 1.699,2.65 1.168,2.428 0.754,1.982 0.34,1.535 0.088,0.875 0,0 m 5.07,-1.473 -5.07,0 c 0.006,-0.588 0.125,-1.107 0.355,-1.556 0.231,-0.45 0.54,-0.789 0.921,-1.016 0.384,-0.228 0.806,-0.342 1.269,-0.342 0.309,0 0.594,0.035 0.851,0.108 0.255,0.074 0.503,0.187 0.746,0.343 0.239,0.155 0.462,0.321 0.664,0.498 0.202,0.178 0.465,0.42 0.788,0.723 0.133,0.113 0.322,0.172 0.57,0.172 0.267,0 0.482,-0.074 0.646,-0.221 0.164,-0.146 0.248,-0.349 0.248,-0.617 0,-0.234 -0.093,-0.506 -0.277,-0.82 C 6.597,-4.516 6.319,-4.816 5.951,-5.104 5.578,-5.393 5.114,-5.631 4.554,-5.82 3.994,-6.012 3.35,-6.105 2.621,-6.105 c -1.664,0 -2.961,0.474 -3.885,1.423 -0.924,0.95 -1.385,2.239 -1.385,3.866 0,0.767 0.112,1.478 0.34,2.132 0.229,0.657 0.561,1.217 0.997,1.686 0.437,0.469 0.976,0.828 1.616,1.078 0.638,0.25 1.348,0.375 2.128,0.375 1.011,0 1.881,-0.213 2.605,-0.641 0.727,-0.427 1.27,-0.98 1.629,-1.656 0.36,-0.679 0.543,-1.369 0.543,-2.07 0,-0.654 -0.188,-1.076 -0.561,-1.27 C 6.275,-1.375 5.75,-1.473 5.07,-1.473"
             style="fill:#ffffff;fill-opacity:1;fill-rule:nonzero;stroke:none"
             id="path28"
             inkscape:connector-curvature="0" /></g><g
           id="g30"
           transform="translate(311.7412,76.748)"><path
             d="m 0,0 c 0,-0.715 -0.173,-1.328 -0.522,-1.838 -0.348,-0.51 -0.863,-0.896 -1.543,-1.16 -0.681,-0.262 -1.508,-0.393 -2.484,-0.393 -0.93,0 -1.729,0.143 -2.393,0.428 -0.664,0.283 -1.157,0.641 -1.473,1.067 -0.316,0.429 -0.475,0.857 -0.475,1.289 0,0.285 0.101,0.527 0.305,0.73 0.202,0.201 0.459,0.303 0.77,0.303 0.271,0 0.479,-0.067 0.625,-0.199 0.146,-0.133 0.287,-0.321 0.418,-0.559 0.266,-0.465 0.585,-0.807 0.955,-1.037 0.371,-0.227 0.875,-0.342 1.515,-0.342 0.519,0 0.946,0.117 1.278,0.348 0.332,0.232 0.498,0.496 0.498,0.793 0,0.457 -0.172,0.787 -0.518,0.996 -0.346,0.209 -0.914,0.41 -1.705,0.599 -0.893,0.221 -1.619,0.455 -2.18,0.7 -0.56,0.242 -1.008,0.564 -1.343,0.963 -0.336,0.398 -0.504,0.89 -0.504,1.472 0,0.518 0.155,1.01 0.464,1.473 0.312,0.461 0.77,0.83 1.375,1.105 0.604,0.276 1.333,0.414 2.188,0.414 0.671,0 1.275,-0.07 1.809,-0.211 0.537,-0.136 0.983,-0.326 1.339,-0.56 0.359,-0.233 0.631,-0.492 0.817,-0.777 0.187,-0.286 0.28,-0.563 0.28,-0.836 0,-0.297 -0.1,-0.541 -0.298,-0.733 C -1.001,3.848 -1.285,3.75 -1.653,3.75 -1.919,3.75 -2.146,3.826 -2.332,3.98 -2.519,4.131 -2.731,4.359 -2.974,4.662 -3.169,4.916 -3.399,5.119 -3.666,5.271 -3.933,5.424 -4.292,5.498 -4.749,5.498 -5.218,5.498 -5.606,5.4 -5.917,5.199 -6.228,5 -6.382,4.752 -6.382,4.455 c 0,-0.273 0.113,-0.496 0.341,-0.67 0.229,-0.176 0.535,-0.32 0.922,-0.433 C -4.731,3.238 -4.202,3.1 -3.522,2.936 -2.72,2.738 -2.063,2.504 -1.553,2.232 -1.043,1.961 -0.657,1.639 -0.394,1.268 -0.131,0.896 0,0.475 0,0"
             style="fill:#ffffff;fill-opacity:1;fill-rule:nonzero;stroke:none"
             id="path32"
             inkscape:connector-curvature="0" /></g><g
           id="g34"
           transform="translate(315.6729,82.4277)"><path
             d="m 0,0 0,-7.494 c 0,-0.52 -0.124,-0.912 -0.371,-1.178 -0.247,-0.266 -0.56,-0.398 -0.941,-0.398 -0.378,0 -0.688,0.134 -0.925,0.408 -0.239,0.271 -0.356,0.662 -0.356,1.168 l 0,7.418 c 0,0.512 0.117,0.898 0.356,1.158 0.237,0.26 0.547,0.391 0.925,0.391 0.381,0 0.694,-0.131 0.941,-0.391 C -0.124,0.822 0,0.461 0,0 m -1.283,2.678 c -0.361,0 -0.669,0.111 -0.925,0.332 -0.257,0.22 -0.385,0.535 -0.385,0.941 0,0.367 0.131,0.668 0.394,0.906 0.262,0.239 0.569,0.358 0.916,0.358 0.337,0 0.634,-0.108 0.893,-0.324 C -0.13,4.676 0,4.363 0,3.951 0,3.551 -0.127,3.24 -0.381,3.016 -0.634,2.791 -0.935,2.678 -1.283,2.678"
             style="fill:#ffffff;fill-opacity:1;fill-rule:nonzero;stroke:none"
             id="path36"
             inkscape:connector-curvature="0" /></g><g
           id="g38"
           transform="translate(319.5186,78.7129)"><path
             d="m 0,0 c 0,-1.051 0.229,-1.846 0.688,-2.383 0.459,-0.539 1.053,-0.808 1.782,-0.808 0.429,0 0.836,0.117 1.218,0.347 0.385,0.231 0.696,0.58 0.937,1.045 0.24,0.465 0.36,1.028 0.36,1.695 0,1.057 -0.231,1.881 -0.697,2.469 C 3.821,2.953 3.21,3.248 2.45,3.248 1.708,3.248 1.115,2.967 0.669,2.402 0.224,1.84 0,1.039 0,0 m 7.513,3.287 0,-7.531 C 7.513,-5.105 7.42,-5.848 7.235,-6.469 7.054,-7.088 6.759,-7.602 6.354,-8.006 5.948,-8.41 5.418,-8.713 4.763,-8.908 4.108,-9.105 3.292,-9.203 2.317,-9.203 c -0.893,0 -1.691,0.125 -2.394,0.375 -0.701,0.252 -1.242,0.574 -1.624,0.969 -0.379,0.396 -0.57,0.802 -0.57,1.22 0,0.317 0.108,0.576 0.325,0.774 0.215,0.201 0.474,0.301 0.777,0.301 0.38,0 0.712,-0.168 0.998,-0.504 0.138,-0.17 0.281,-0.344 0.431,-0.518 0.149,-0.176 0.315,-0.324 0.494,-0.447 0.181,-0.123 0.397,-0.215 0.651,-0.276 0.253,-0.058 0.545,-0.089 0.873,-0.089 0.672,0 1.194,0.093 1.564,0.281 0.37,0.185 0.63,0.447 0.779,0.783 0.15,0.334 0.235,0.693 0.261,1.078 0.025,0.383 0.044,0.998 0.056,1.848 C 4.539,-3.967 4.08,-4.391 3.556,-4.682 3.034,-4.973 2.412,-5.119 1.69,-5.119 c -0.867,0 -1.625,0.223 -2.275,0.666 -0.648,0.443 -1.146,1.062 -1.495,1.861 -0.349,0.799 -0.523,1.719 -0.523,2.764 0,0.777 0.106,1.482 0.318,2.107 0.214,0.629 0.514,1.157 0.908,1.588 0.392,0.43 0.845,0.754 1.356,0.973 0.514,0.219 1.079,0.328 1.692,0.328 0.734,0 1.371,-0.143 1.91,-0.422 0.537,-0.283 1.038,-0.725 1.5,-1.326 l 0,0.351 c 0,0.45 0.109,0.797 0.332,1.045 0.222,0.246 0.507,0.371 0.856,0.371 0.5,0 0.832,-0.164 0.996,-0.49 C 7.431,4.371 7.513,3.9 7.513,3.287"
             style="fill:#ffffff;fill-opacity:1;fill-rule:nonzero;stroke:none"
             id="path40"
             inkscape:connector-curvature="0" /></g><g
           id="g42"
           transform="translate(331.1523,82.4648)"><path
             d="M 0,0 0,-0.312 C 0.455,0.289 0.954,0.73 1.496,1.012 2.037,1.293 2.659,1.436 3.361,1.436 4.046,1.436 4.657,1.285 5.195,0.988 5.732,0.689 6.137,0.271 6.4,-0.273 6.573,-0.592 6.684,-0.934 6.732,-1.301 6.784,-1.668 6.811,-2.137 6.811,-2.707 l 0,-4.824 c 0,-0.52 -0.12,-0.912 -0.357,-1.178 -0.238,-0.266 -0.546,-0.398 -0.927,-0.398 -0.386,0 -0.699,0.134 -0.94,0.408 -0.241,0.271 -0.36,0.662 -0.36,1.168 l 0,4.322 c 0,0.855 -0.12,1.508 -0.357,1.961 -0.238,0.451 -0.71,0.68 -1.42,0.68 -0.462,0 -0.884,-0.139 -1.262,-0.414 C 0.807,-1.258 0.527,-1.637 0.352,-2.117 0.225,-2.504 0.161,-3.225 0.161,-4.283 l 0,-3.248 c 0,-0.526 -0.122,-0.92 -0.365,-1.184 -0.243,-0.262 -0.56,-0.392 -0.944,-0.392 -0.375,0 -0.682,0.134 -0.922,0.408 -0.241,0.271 -0.362,0.662 -0.362,1.168 l 0,7.494 c 0,0.494 0.108,0.863 0.323,1.107 0.214,0.243 0.509,0.366 0.882,0.366 0.229,0 0.435,-0.055 0.62,-0.163 0.182,-0.109 0.33,-0.269 0.441,-0.484 C -0.055,0.574 0,0.311 0,0"
             style="fill:#ffffff;fill-opacity:1;fill-rule:nonzero;stroke:none"
             id="path44"
             inkscape:connector-curvature="0" /></g><g
           id="g46"
           transform="translate(341.8555,79.4629)"><path
             d="M 0,0 4.701,0 C 4.639,0.887 4.398,1.551 3.984,1.99 3.568,2.432 3.023,2.65 2.346,2.65 1.7,2.65 1.169,2.428 0.754,1.982 0.339,1.535 0.089,0.875 0,0 m 5.07,-1.473 -5.07,0 c 0.007,-0.588 0.125,-1.107 0.355,-1.556 0.232,-0.45 0.54,-0.789 0.922,-1.016 0.383,-0.228 0.806,-0.342 1.268,-0.342 0.31,0 0.594,0.035 0.851,0.108 0.254,0.074 0.504,0.187 0.747,0.343 0.238,0.155 0.461,0.321 0.664,0.498 0.201,0.178 0.464,0.42 0.787,0.723 0.133,0.113 0.323,0.172 0.57,0.172 0.266,0 0.482,-0.074 0.647,-0.221 0.164,-0.146 0.246,-0.349 0.246,-0.617 0,-0.234 -0.092,-0.506 -0.276,-0.82 C 6.598,-4.516 6.32,-4.816 5.95,-5.104 5.579,-5.393 5.115,-5.631 4.555,-5.82 3.994,-6.012 3.35,-6.105 2.621,-6.105 c -1.665,0 -2.96,0.474 -3.885,1.423 -0.924,0.95 -1.386,2.239 -1.386,3.866 0,0.767 0.114,1.478 0.341,2.132 0.228,0.657 0.561,1.217 0.998,1.686 0.437,0.469 0.976,0.828 1.616,1.078 0.638,0.25 1.347,0.375 2.127,0.375 1.011,0 1.881,-0.213 2.606,-0.641 C 5.764,3.387 6.307,2.834 6.667,2.158 7.027,1.479 7.209,0.789 7.209,0.088 7.209,-0.566 7.021,-0.988 6.648,-1.182 6.275,-1.375 5.75,-1.473 5.07,-1.473"
             style="fill:#ffffff;fill-opacity:1;fill-rule:nonzero;stroke:none"
             id="path48"
             inkscape:connector-curvature="0" /></g><g
           id="g50"
           transform="translate(352.3965,78.6465)"><path
             d="m 0,0 c 0,-0.703 0.108,-1.301 0.328,-1.795 0.217,-0.494 0.518,-0.865 0.899,-1.115 0.378,-0.25 0.794,-0.377 1.242,-0.377 0.457,0 0.873,0.119 1.25,0.357 0.377,0.237 0.677,0.602 0.902,1.092 0.225,0.49 0.338,1.106 0.338,1.838 0,0.691 -0.113,1.285 -0.338,1.783 C 4.396,2.279 4.092,2.658 3.709,2.922 3.326,3.184 2.906,3.314 2.451,3.314 1.977,3.314 1.551,3.18 1.178,2.912 0.805,2.643 0.515,2.258 0.309,1.754 0.103,1.25 0,0.666 0,0 m 5.101,-3.809 0,0.258 C 4.752,-3.949 4.408,-4.275 4.069,-4.523 3.73,-4.775 3.364,-4.965 2.969,-5.094 2.573,-5.227 2.141,-5.289 1.672,-5.289 c -0.621,0 -1.195,0.131 -1.724,0.393 -0.528,0.263 -0.987,0.638 -1.372,1.126 -0.388,0.487 -0.68,1.059 -0.879,1.719 -0.199,0.658 -0.3,1.371 -0.3,2.137 0,1.621 0.396,2.885 1.187,3.791 0.793,0.904 1.834,1.357 3.125,1.357 0.748,0 1.379,-0.129 1.892,-0.384 0.511,-0.256 1.012,-0.653 1.5,-1.182 l 0,3.826 c 0,0.533 0.106,0.934 0.317,1.207 0.213,0.272 0.516,0.408 0.908,0.408 0.393,0 0.695,-0.125 0.906,-0.375 C 7.444,8.482 7.551,8.115 7.551,7.627 l 0,-11.436 c 0,-0.494 -0.113,-0.863 -0.342,-1.111 -0.228,-0.246 -0.521,-0.369 -0.883,-0.369 -0.354,0 -0.648,0.127 -0.879,0.383 -0.232,0.258 -0.346,0.623 -0.346,1.097"
             style="fill:#ffffff;fill-opacity:1;fill-rule:nonzero;stroke:none"
             id="path52"
             inkscape:connector-curvature="0" /></g><g
           id="g54"
           transform="translate(368.2188,78.5703)"><path
             d="m 0,0 c 0,-1.031 0.234,-1.824 0.707,-2.377 0.473,-0.555 1.091,-0.834 1.857,-0.834 0.652,0 1.213,0.283 1.686,0.852 0.471,0.566 0.707,1.379 0.707,2.435 C 4.957,0.76 4.859,1.35 4.663,1.844 4.467,2.338 4.188,2.719 3.828,2.988 3.467,3.256 3.045,3.391 2.564,3.391 2.07,3.391 1.629,3.256 1.244,2.988 0.857,2.719 0.555,2.33 0.332,1.82 0.109,1.311 0,0.703 0,0 m -0.124,7.703 0,-3.959 c 0.487,0.506 0.983,0.895 1.491,1.162 0.506,0.27 1.134,0.405 1.881,0.405 0.861,0 1.615,-0.207 2.266,-0.612 0.648,-0.41 1.151,-1.002 1.509,-1.777 0.358,-0.776 0.538,-1.695 0.538,-2.76 0,-0.785 -0.1,-1.504 -0.299,-2.16 C 7.063,-2.654 6.771,-3.223 6.393,-3.703 6.012,-4.184 5.551,-4.557 5.01,-4.82 4.469,-5.082 3.871,-5.213 3.221,-5.213 2.82,-5.213 2.445,-5.166 2.094,-5.07 1.742,-4.977 1.443,-4.852 1.195,-4.695 0.95,-4.541 0.738,-4.381 0.564,-4.217 0.391,-4.053 0.16,-3.805 -0.124,-3.475 l 0,-0.257 c 0,-0.487 -0.117,-0.856 -0.353,-1.108 -0.232,-0.25 -0.53,-0.373 -0.891,-0.373 -0.366,0 -0.659,0.123 -0.879,0.373 -0.218,0.252 -0.327,0.621 -0.327,1.108 l 0,11.322 c 0,0.525 0.106,0.924 0.317,1.191 0.213,0.27 0.509,0.405 0.889,0.405 0.399,0 0.706,-0.129 0.921,-0.385 0.215,-0.258 0.323,-0.621 0.323,-1.098"
             style="fill:#ffffff;fill-opacity:1;fill-rule:nonzero;stroke:none"
             id="path56"
             inkscape:connector-curvature="0" /></g><g
           id="g58"
           transform="translate(379.1406,73.0332)"><path
             d="m 0,0 0.236,0.58 -3.19,8.035 c -0.196,0.461 -0.295,0.799 -0.295,1.008 0,0.221 0.058,0.426 0.171,0.615 0.115,0.192 0.271,0.344 0.471,0.457 0.199,0.116 0.406,0.172 0.623,0.172 0.373,0 0.654,-0.119 0.843,-0.357 0.192,-0.237 0.36,-0.576 0.504,-1.02 l 2.196,-6.383 2.08,5.936 c 0.164,0.48 0.312,0.857 0.445,1.131 0.133,0.271 0.273,0.455 0.422,0.549 0.148,0.095 0.359,0.144 0.633,0.144 0.197,0 0.384,-0.054 0.564,-0.158 0.181,-0.105 0.32,-0.244 0.418,-0.422 C 6.219,10.109 6.27,9.924 6.27,9.727 6.242,9.607 6.203,9.436 6.145,9.213 6.088,8.992 6.02,8.766 5.938,8.539 L 2.555,-0.313 C 2.264,-1.092 1.979,-1.701 1.699,-2.146 1.421,-2.588 1.053,-2.93 0.594,-3.166 c -0.46,-0.238 -1.078,-0.357 -1.858,-0.357 -0.759,0 -1.33,0.082 -1.709,0.246 -0.381,0.166 -0.57,0.465 -0.57,0.904 0,0.297 0.09,0.527 0.272,0.686 0.179,0.164 0.447,0.246 0.8,0.246 0.141,0 0.278,-0.02 0.41,-0.059 0.165,-0.037 0.307,-0.057 0.426,-0.057 0.298,0 0.533,0.043 0.703,0.133 0.172,0.088 0.325,0.242 0.461,0.461 C -0.334,-0.746 -0.178,-0.424 0,0"
             style="fill:#ffffff;fill-opacity:1;fill-rule:nonzero;stroke:none"
             id="path60"
             inkscape:connector-curvature="0" /></g><g
           id="g62"
           transform="translate(416.7031,83.6758)"><path
             d="m 0,0 0.619,0 0,0.777 c 0,0.815 0.1,1.457 0.307,1.938 0.203,0.478 0.554,0.826 1.047,1.045 0.49,0.217 1.162,0.326 2.015,0.326 1.52,0 2.274,-0.367 2.274,-1.113 C 6.262,2.734 6.182,2.527 6.021,2.357 5.867,2.188 5.678,2.102 5.463,2.102 5.363,2.102 5.186,2.119 4.936,2.16 4.699,2.193 4.484,2.217 4.313,2.217 3.846,2.217 3.547,2.076 3.408,1.801 3.281,1.525 3.213,1.133 3.213,0.617 L 3.213,0 3.846,0 c 0.99,0 1.48,-0.297 1.48,-0.896 0,-0.418 -0.127,-0.69 -0.392,-0.805 -0.262,-0.113 -0.623,-0.17 -1.088,-0.17 l -0.633,0 0,-6.871 c 0,-0.512 -0.121,-0.901 -0.369,-1.168 -0.242,-0.274 -0.555,-0.406 -0.944,-0.406 -0.367,0 -0.67,0.132 -0.918,0.406 -0.244,0.267 -0.363,0.656 -0.363,1.168 l 0,6.871 -0.715,0 c -0.388,0 -0.681,0.084 -0.892,0.262 -0.209,0.17 -0.315,0.398 -0.315,0.677 C -1.303,-0.309 -0.869,0 0,0"
             style="fill:#ffffff;fill-opacity:1;fill-rule:nonzero;stroke:none"
             id="path64"
             inkscape:connector-curvature="0" /></g><g
           id="g66"
           transform="translate(425.1934,77.1016)"><path
             d="m 0,0 0,-2.168 c 0,-0.523 -0.133,-0.92 -0.375,-1.18 -0.246,-0.265 -0.559,-0.394 -0.938,-0.394 -0.38,0 -0.687,0.131 -0.925,0.4 -0.237,0.264 -0.362,0.656 -0.362,1.174 l 0,7.223 c 0,1.166 0.42,1.748 1.262,1.748 0.434,0 0.742,-0.135 0.934,-0.408 0.189,-0.274 0.295,-0.674 0.316,-1.208 0.309,0.534 0.625,0.934 0.949,1.208 0.332,0.273 0.762,0.408 1.309,0.408 0.549,0 1.072,-0.135 1.586,-0.408 C 4.271,6.121 4.527,5.758 4.527,5.311 4.527,4.996 4.416,4.73 4.201,4.529 3.98,4.32 3.746,4.217 3.494,4.217 3.395,4.217 3.164,4.279 2.803,4.396 2.438,4.51 2.113,4.57 1.84,4.57 1.459,4.57 1.146,4.467 0.908,4.271 0.666,4.066 0.477,3.775 0.344,3.385 0.215,2.99 0.125,2.52 0.07,1.98 0.021,1.439 0,0.777 0,0"
             style="fill:#ffffff;fill-opacity:1;fill-rule:nonzero;stroke:none"
             id="path68"
             inkscape:connector-curvature="0" /></g><g
           id="g70"
           transform="translate(432.0391,79.4688)"><path
             d="M 0,0 4.701,0 C 4.639,0.885 4.404,1.549 3.988,1.986 3.57,2.428 3.029,2.646 2.348,2.646 1.701,2.646 1.17,2.426 0.756,1.977 0.342,1.531 0.088,0.873 0,0 m 5.074,-1.475 -5.074,0 c 0.01,-0.588 0.125,-1.111 0.355,-1.558 0.235,-0.447 0.54,-0.787 0.924,-1.018 0.385,-0.226 0.805,-0.34 1.27,-0.34 0.31,0 0.592,0.034 0.849,0.112 0.254,0.07 0.504,0.185 0.745,0.341 0.242,0.153 0.461,0.319 0.664,0.5 0.203,0.174 0.466,0.417 0.791,0.719 0.134,0.114 0.324,0.174 0.568,0.174 0.268,0 0.48,-0.074 0.648,-0.223 0.166,-0.146 0.245,-0.349 0.245,-0.617 0,-0.234 -0.09,-0.508 -0.268,-0.818 C 6.604,-4.521 6.328,-4.82 5.955,-5.109 5.58,-5.395 5.115,-5.637 4.557,-5.824 3.998,-6.014 3.352,-6.109 2.625,-6.109 c -1.67,0 -2.963,0.472 -3.887,1.422 -0.924,0.951 -1.39,2.242 -1.39,3.867 0,0.767 0.117,1.478 0.347,2.134 0.225,0.659 0.557,1.217 0.998,1.688 0.436,0.471 0.971,0.828 1.614,1.078 0.636,0.25 1.345,0.375 2.127,0.375 1.011,0 1.88,-0.215 2.607,-0.646 C 5.764,3.387 6.314,2.832 6.67,2.154 7.031,1.475 7.211,0.787 7.211,0.08 7.211,-0.568 7.023,-0.99 6.65,-1.186 6.277,-1.379 5.752,-1.475 5.074,-1.475"
             style="fill:#ffffff;fill-opacity:1;fill-rule:nonzero;stroke:none"
             id="path72"
             inkscape:connector-curvature="0" /></g><g
           id="g74"
           transform="translate(442.8281,79.4688)"><path
             d="M 0,0 4.701,0 C 4.637,0.885 4.396,1.549 3.986,1.986 3.564,2.428 3.023,2.646 2.344,2.646 1.697,2.646 1.168,2.426 0.75,1.977 0.338,1.531 0.084,0.873 0,0 m 5.072,-1.475 -5.072,0 c 0.006,-0.588 0.125,-1.111 0.354,-1.558 0.232,-0.447 0.539,-0.787 0.921,-1.018 0.383,-0.226 0.805,-0.34 1.272,-0.34 0.307,0 0.592,0.034 0.844,0.112 0.259,0.07 0.505,0.185 0.75,0.341 0.242,0.153 0.461,0.319 0.664,0.5 0.199,0.174 0.465,0.417 0.789,0.719 0.135,0.114 0.326,0.174 0.568,0.174 0.268,0 0.483,-0.074 0.651,-0.223 0.164,-0.146 0.24,-0.349 0.24,-0.617 0,-0.234 -0.088,-0.508 -0.274,-0.818 C 6.602,-4.521 6.324,-4.82 5.949,-5.109 5.578,-5.395 5.109,-5.637 4.553,-5.824 3.996,-6.014 3.346,-6.109 2.619,-6.109 c -1.668,0 -2.959,0.472 -3.887,1.422 -0.923,0.951 -1.388,2.242 -1.388,3.867 0,0.767 0.115,1.478 0.347,2.134 0.227,0.659 0.559,1.217 0.996,1.688 C -0.877,3.473 -0.34,3.83 0.301,4.08 0.939,4.33 1.652,4.455 2.43,4.455 3.439,4.455 4.309,4.24 5.043,3.809 5.764,3.387 6.309,2.832 6.664,2.154 7.023,1.475 7.209,0.787 7.209,0.08 7.209,-0.568 7.018,-0.99 6.648,-1.186 6.273,-1.379 5.748,-1.475 5.072,-1.475"
             style="fill:#ffffff;fill-opacity:1;fill-rule:nonzero;stroke:none"
             id="path76"
             inkscape:connector-curvature="0" /></g><g
           id="g78"
           transform="translate(458.6641,78.6777)"><path
             d="m 0,0 c 0,0.686 -0.105,1.273 -0.314,1.764 -0.209,0.492 -0.499,0.867 -0.866,1.127 -0.367,0.263 -0.783,0.396 -1.232,0.396 -0.715,0 -1.318,-0.283 -1.809,-0.844 -0.492,-0.566 -0.74,-1.394 -0.74,-2.492 0,-1.027 0.244,-1.834 0.736,-2.406 0.487,-0.574 1.086,-0.859 1.813,-0.859 0.428,0 0.83,0.126 1.197,0.373 0.371,0.252 0.664,0.627 0.883,1.127 C -0.111,-1.312 0,-0.707 0,0 m -5.084,3.768 0,-0.311 c 0.486,0.602 0.994,1.043 1.525,1.324 0.518,0.285 1.118,0.428 1.782,0.428 C -0.982,5.209 -0.242,5 0.43,4.592 1.102,4.178 1.629,3.576 2.02,2.785 2.408,1.99 2.605,1.055 2.605,-0.029 2.605,-0.824 2.492,-1.561 2.27,-2.229 2.045,-2.898 1.732,-3.457 1.34,-3.91 0.947,-4.359 0.484,-4.711 -0.049,-4.955 -0.592,-5.197 -1.16,-5.318 -1.777,-5.318 c -0.739,0 -1.364,0.148 -1.866,0.447 -0.502,0.291 -0.982,0.732 -1.441,1.305 l 0,-3.893 c 0,-1.135 -0.416,-1.709 -1.244,-1.709 -0.49,0 -0.809,0.147 -0.971,0.439 -0.152,0.299 -0.234,0.723 -0.234,1.292 l 0,11.193 c 0,0.494 0.107,0.859 0.32,1.107 0.215,0.239 0.512,0.364 0.885,0.364 0.369,0 0.666,-0.125 0.896,-0.373 0.235,-0.254 0.348,-0.612 0.348,-1.086"
             style="fill:#ffffff;fill-opacity:1;fill-rule:nonzero;stroke:none"
             id="path80"
             inkscape:connector-curvature="0" /></g><g
           id="g82"
           transform="translate(465.1641,82.4336)"><path
             d="m 0,0 0,-7.502 c 0,-0.516 -0.123,-0.908 -0.369,-1.172 -0.25,-0.269 -0.561,-0.4 -0.942,-0.4 -0.38,0 -0.685,0.133 -0.927,0.406 -0.235,0.275 -0.356,0.664 -0.356,1.166 l 0,7.428 c 0,0.51 0.121,0.894 0.356,1.154 0.242,0.264 0.547,0.391 0.927,0.391 0.381,0 0.692,-0.127 0.942,-0.391 C -0.123,0.82 0,0.457 0,0 m -1.283,2.678 c -0.363,0 -0.67,0.115 -0.924,0.336 -0.26,0.222 -0.387,0.531 -0.387,0.935 0,0.369 0.131,0.67 0.397,0.91 0.261,0.235 0.566,0.356 0.914,0.356 0.34,0 0.635,-0.106 0.892,-0.319 C -0.131,4.678 0,4.361 0,3.949 0,3.551 -0.127,3.238 -0.377,3.014 -0.631,2.793 -0.932,2.678 -1.283,2.678"
             style="fill:#ffffff;fill-opacity:1;fill-rule:nonzero;stroke:none"
             id="path84"
             inkscape:connector-curvature="0" /></g><g
           id="g86"
           transform="translate(473.5234,74.543)"><path
             d="m 0,0 -2.283,3.766 -1.408,-1.328 0,-2.067 c 0,-0.498 -0.133,-0.881 -0.397,-1.148 -0.258,-0.274 -0.566,-0.407 -0.906,-0.407 -0.399,0 -0.715,0.131 -0.942,0.401 -0.226,0.263 -0.343,0.656 -0.343,1.174 l 0,11.062 c 0,0.574 0.115,1.012 0.332,1.315 0.222,0.304 0.545,0.451 0.953,0.451 0.398,0 0.713,-0.137 0.949,-0.41 0.234,-0.272 0.354,-0.674 0.354,-1.204 l 0,-6.293 2.916,3.063 c 0.361,0.377 0.632,0.641 0.826,0.779 0.189,0.139 0.42,0.207 0.689,0.207 0.326,0 0.594,-0.103 0.817,-0.308 C 1.768,8.848 1.877,8.588 1.877,8.279 1.877,7.9 1.523,7.391 0.822,6.758 L -0.555,5.496 2.104,1.312 C 2.297,1 2.443,0.77 2.527,0.607 2.611,0.447 2.658,0.287 2.658,0.145 2.658,-0.268 2.543,-0.59 2.316,-0.83 2.092,-1.066 1.793,-1.184 1.432,-1.184 c -0.317,0 -0.565,0.08 -0.735,0.256 C 0.527,-0.756 0.291,-0.445 0,0"
             style="fill:#ffffff;fill-opacity:1;fill-rule:nonzero;stroke:none"
             id="path88"
             inkscape:connector-curvature="0" /></g><g
           id="g90"
           transform="translate(479.1602,73.3594)"><path
             d="m 0,0 c -0.393,0 -0.729,0.125 -1.014,0.381 -0.285,0.248 -0.429,0.605 -0.429,1.064 0,0.385 0.138,0.719 0.41,0.994 0.275,0.28 0.607,0.42 1.008,0.42 0.398,0 0.736,-0.14 1.023,-0.412 C 1.277,2.172 1.42,1.834 1.42,1.445 1.42,0.992 1.277,0.637 0.998,0.385 0.711,0.125 0.379,0 0,0"
             style="fill:#ffffff;fill-opacity:1;fill-rule:nonzero;stroke:none"
             id="path92"
             inkscape:connector-curvature="0" /></g><g
           id="g94"
           transform="translate(492.0586,76.5684)"><path
             d="m 0,0 c 0,-0.32 -0.098,-0.668 -0.291,-1.033 -0.191,-0.371 -0.488,-0.719 -0.887,-1.051 -0.394,-0.332 -0.89,-0.602 -1.494,-0.803 -0.601,-0.203 -1.281,-0.306 -2.031,-0.306 -1.606,0 -2.858,0.468 -3.758,1.4 -0.894,0.936 -1.346,2.189 -1.346,3.76 0,1.068 0.205,2.006 0.619,2.824 0.409,0.814 1.004,1.447 1.782,1.895 0.779,0.447 1.717,0.669 2.795,0.669 0.673,0 1.287,-0.097 1.851,-0.294 0.561,-0.196 1.033,-0.452 1.426,-0.76 0.387,-0.315 0.686,-0.643 0.889,-0.992 0.207,-0.352 0.308,-0.68 0.308,-0.987 C -0.137,4.014 -0.25,3.75 -0.48,3.535 -0.715,3.32 -0.996,3.211 -1.318,3.211 c -0.219,0 -0.399,0.057 -0.541,0.166 -0.145,0.111 -0.305,0.289 -0.479,0.541 -0.318,0.478 -0.646,0.842 -0.996,1.08 -0.344,0.242 -0.781,0.361 -1.314,0.361 -0.762,0 -1.383,-0.297 -1.854,-0.896 -0.467,-0.596 -0.703,-1.42 -0.703,-2.455 0,-0.488 0.062,-0.94 0.184,-1.348 0.117,-0.406 0.291,-0.756 0.519,-1.043 0.231,-0.287 0.504,-0.506 0.826,-0.654 0.324,-0.154 0.682,-0.227 1.065,-0.227 0.521,0 0.966,0.121 1.336,0.362 0.377,0.24 0.703,0.607 0.986,1.101 0.158,0.291 0.328,0.518 0.51,0.684 0.181,0.164 0.408,0.25 0.675,0.25 0.317,0 0.581,-0.123 0.786,-0.363 C -0.107,0.529 0,0.271 0,0"
             style="fill:#ffffff;fill-opacity:1;fill-rule:nonzero;stroke:none"
             id="path96"
             inkscape:connector-curvature="0" /></g><g
           id="g98"
           transform="translate(500.6445,78.6289)"><path
             d="M 0,0 C 0,1.059 -0.234,1.881 -0.697,2.469 -1.16,3.063 -1.787,3.357 -2.572,3.357 -3.08,3.357 -3.527,3.225 -3.914,2.963 -4.301,2.701 -4.596,2.313 -4.805,1.799 -5.014,1.285 -5.119,0.686 -5.119,0 c 0,-0.678 0.101,-1.268 0.308,-1.773 0.209,-0.51 0.502,-0.897 0.887,-1.166 0.385,-0.266 0.834,-0.405 1.352,-0.405 0.785,0 1.412,0.297 1.875,0.893 C -0.234,-1.861 0,-1.041 0,0 m 2.604,0 c 0,-0.771 -0.122,-1.484 -0.356,-2.139 -0.246,-0.652 -0.592,-1.213 -1.049,-1.677 -0.455,-0.469 -1.002,-0.83 -1.633,-1.08 -0.638,-0.25 -1.349,-0.375 -2.138,-0.375 -0.785,0 -1.492,0.125 -2.121,0.382 -0.623,0.248 -1.17,0.614 -1.625,1.082 -0.461,0.477 -0.809,1.034 -1.053,1.676 -0.229,0.645 -0.35,1.356 -0.35,2.131 0,0.787 0.123,1.506 0.358,2.158 0.242,0.655 0.59,1.213 1.039,1.674 0.451,0.461 0.994,0.816 1.631,1.07 0.644,0.248 1.349,0.373 2.121,0.373 0.785,0 1.498,-0.125 2.138,-0.38 C 0.205,4.643 0.75,4.279 1.211,3.813 1.668,3.34 2.014,2.785 2.25,2.143 2.484,1.492 2.604,0.783 2.604,0"
             style="fill:#ffffff;fill-opacity:1;fill-rule:nonzero;stroke:none"
             id="path100"
             inkscape:connector-curvature="0" /></g><g
           id="g102"
           transform="translate(513.1406,78.4395)"><path
             d="m 0,0 0,-3.447 c 0,-0.547 -0.121,-0.951 -0.369,-1.227 -0.25,-0.273 -0.572,-0.408 -0.979,-0.408 -0.392,0 -0.713,0.135 -0.951,0.408 -0.246,0.276 -0.371,0.68 -0.371,1.227 l 0,4.131 c 0,0.654 -0.021,1.162 -0.064,1.525 -0.045,0.354 -0.168,0.654 -0.362,0.883 -0.197,0.234 -0.509,0.351 -0.931,0.351 -0.85,0 -1.407,-0.291 -1.676,-0.88 C -5.971,1.986 -6.109,1.148 -6.109,0.055 l 0,-3.502 c 0,-0.537 -0.123,-0.946 -0.362,-1.223 -0.25,-0.273 -0.568,-0.412 -0.965,-0.412 -0.396,0 -0.716,0.139 -0.966,0.412 -0.252,0.277 -0.377,0.686 -0.377,1.223 l 0,7.42 c 0,0.488 0.111,0.859 0.336,1.111 0.228,0.256 0.525,0.381 0.888,0.381 0.358,0 0.653,-0.123 0.893,-0.356 0.236,-0.238 0.353,-0.566 0.353,-0.984 l 0,-0.244 c 0.454,0.535 0.936,0.932 1.446,1.18 0.515,0.259 1.082,0.386 1.713,0.386 0.65,0 1.211,-0.131 1.677,-0.39 0.469,-0.26 0.854,-0.655 1.16,-1.176 0.44,0.527 0.909,0.922 1.411,1.18 0.5,0.257 1.052,0.386 1.662,0.386 0.705,0 1.32,-0.142 1.834,-0.42 C 5.104,4.75 5.486,4.348 5.74,3.832 5.961,3.359 6.07,2.623 6.07,1.615 l 0,-5.062 C 6.07,-3.994 5.949,-4.398 5.703,-4.674 5.457,-4.947 5.129,-5.082 4.725,-5.082 4.33,-5.082 4.01,-4.943 3.76,-4.67 3.51,-4.393 3.383,-3.984 3.383,-3.447 l 0,4.361 C 3.383,1.473 3.359,1.918 3.314,2.252 3.268,2.59 3.137,2.873 2.932,3.1 2.719,3.326 2.4,3.443 1.979,3.443 1.637,3.443 1.313,3.336 1.004,3.135 0.697,2.938 0.457,2.658 0.283,2.322 0.098,1.885 0,1.109 0,0"
             style="fill:#ffffff;fill-opacity:1;fill-rule:nonzero;stroke:none"
             id="path104"
             inkscape:connector-curvature="0" /></g><g
           id="g106"
           transform="translate(392.4355,79.2578)"><path
             d="M 0,0 C -0.002,0.004 -0.002,0.01 -0.002,0.018 -0.002,0.01 -0.002,0.004 0,0"
             style="fill:#ffffff;fill-opacity:1;fill-rule:nonzero;stroke:none"
             id="path108"
             inkscape:connector-curvature="0" /></g><g
           id="g110"
           transform="translate(392.5664,78.4277)"><path
             d="M 0,0 0.003,0 C -0.047,0.236 -0.086,0.471 -0.115,0.703 -0.086,0.469 -0.047,0.234 0,0"
             style="fill:#ffffff;fill-opacity:1;fill-rule:nonzero;stroke:none"
             id="path112"
             inkscape:connector-curvature="0" /></g><g
           id="g114"
           transform="translate(393.4248,76.0215)"><path
             d="M 0,0 C -0.006,0.01 -0.011,0.021 -0.017,0.033 -0.011,0.021 -0.006,0.01 0,0"
             style="fill:#ffffff;fill-opacity:1;fill-rule:nonzero;stroke:none"
             id="path116"
             inkscape:connector-curvature="0" /></g><g
           id="g118"
           transform="translate(393.3428,76.1816)"><path
             d="M 0,0 C -0.022,0.045 -0.044,0.09 -0.065,0.135 -0.044,0.088 -0.022,0.045 0,0"
             style="fill:#ffffff;fill-opacity:1;fill-rule:nonzero;stroke:none"
             id="path120"
             inkscape:connector-curvature="0" /></g><g
           id="g122"
           transform="translate(392.8076,77.502)"><path
             d="M 0,0 C 0.127,-0.4 0.28,-0.789 0.457,-1.158 0.276,-0.781 0.127,-0.393 0.003,0 L 0,0 Z"
             style="fill:#ffffff;fill-opacity:1;fill-rule:nonzero;stroke:none"
             id="path124"
             inkscape:connector-curvature="0" /></g><g
           id="g126"
           transform="translate(402.4727,89.1934)"><path
             d="m 0,0 c 0.502,0 0.871,-0.039 1.295,-0.111 l 0.121,0.763 c 0,0 -1.172,0.36 -2.711,0.235 l -0.121,0.414 c 0.478,0.101 0.838,0.527 0.838,1.035 0,0.582 -0.475,1.053 -1.057,1.053 -0.584,0 -1.056,-0.471 -1.056,-1.053 0,-0.508 0.359,-0.934 0.836,-1.035 L -1.721,0.838 C -3.355,0.613 -4.656,-0.023 -4.656,-0.023 l 0.23,-0.706 c 0.988,0.329 1.846,0.53 2.625,0.614 C -1.041,-0.035 -0.467,0 0,0"
             style="fill:#ffffff;fill-opacity:1;fill-rule:nonzero;stroke:none"
             id="path128"
             inkscape:connector-curvature="0" /></g><g
           id="g130"
           transform="translate(393.4053,85.3359)"><path
             d="M 0,0 0.006,0.008 C 0.044,0.057 0.081,0.104 0.119,0.15 l -0.313,0.225 -0.489,0.357 c -0.026,-0.039 -0.795,-0.744 -1.4,-2.048 -0.025,0.041 -0.057,0.082 -0.09,0.119 -0.181,0.199 -0.435,0.301 -0.758,0.295 l -0.015,0 c -0.2,0 -0.336,0.066 -0.426,0.146 0.089,0.113 0.143,0.256 0.143,0.414 0,0.367 -0.299,0.668 -0.67,0.668 -0.37,0 -0.668,-0.301 -0.668,-0.668 0,-0.371 0.298,-0.67 0.668,-0.67 0.058,0 0.113,0.01 0.168,0.022 0.164,-0.184 0.423,-0.342 0.806,-0.334 0.197,0.002 0.342,-0.049 0.438,-0.155 0.111,-0.123 0.148,-0.296 0.16,-0.429 -10e-4,-0.002 -10e-4,-0.004 -0.003,-0.004 -0.437,-1.19 -0.312,-2.67 -0.312,-2.67 l 1.058,-0.043 c 0.022,0.539 0.099,1.482 0.372,2.23 C -0.687,-0.945 -0.026,-0.039 0,0"
             style="fill:#ffffff;fill-opacity:1;fill-rule:nonzero;stroke:none"
             id="path132"
             inkscape:connector-curvature="0" /></g><g
           id="g134"
           transform="translate(411.6719,88.3105)"><path
             d="m 0,0 c -0.367,0 -0.668,-0.299 -0.668,-0.67 0,-0.057 0.008,-0.111 0.023,-0.164 -0.183,-0.166 -0.343,-0.428 -0.337,-0.811 0.003,-0.197 -0.047,-0.339 -0.155,-0.437 -0.084,-0.074 -0.191,-0.115 -0.295,-0.141 -0.787,1.104 -1.756,1.776 -1.756,1.776 L -3.947,-1.26 c 0.574,-0.521 1.16,-1.176 1.728,-1.99 0.395,-0.564 0.799,-1.291 1.137,-2.016 l 1.023,0.487 c 0,0 -0.466,1.156 -1.125,2.191 0.114,0.041 0.229,0.104 0.33,0.193 0.202,0.18 0.299,0.436 0.293,0.758 -0.002,0.207 0.067,0.348 0.149,0.442 0.115,-0.088 0.258,-0.143 0.412,-0.143 0.371,0 0.67,0.299 0.67,0.668 C 0.67,-0.299 0.371,0 0,0"
             style="fill:#ffffff;fill-opacity:1;fill-rule:nonzero;stroke:none"
             id="path136"
             inkscape:connector-curvature="0" /></g><g
           id="g138"
           transform="translate(409.0156,79.1074)"><path
             d="m 0,0 c -1.41,-0.686 -3.729,-1.594 -6.781,-2.02 -1.199,-0.166 -2.36,-0.226 -3.428,-0.226 -1.393,0 -2.621,0.103 -3.564,0.223 -1.076,0.134 -1.916,0.3 -2.432,0.419 0.123,-0.394 0.273,-0.783 0.455,-1.16 0.002,-0.009 0.006,-0.021 0.012,-0.027 0.021,-0.045 0.043,-0.09 0.066,-0.135 0.021,-0.043 0.043,-0.086 0.065,-0.127 0.005,-0.01 0.01,-0.023 0.017,-0.033 0.301,-0.57 0.666,-1.094 1.08,-1.549 1.44,-1.574 2.906,-1.824 2.92,-1.826 l 0.024,-0.002 0.021,-0.008 c 0.014,-0.006 1.315,-0.425 3.291,-0.425 1.945,0 3.856,0.392 5.674,1.167 1.348,0.69 2.623,1.737 3.254,2.67 0.488,0.723 0.842,1.493 1.051,2.293 C 1.836,-0.34 1.924,0.342 1.871,1.062 1.475,0.793 0.848,0.414 0,0"
             style="fill:#ffffff;fill-opacity:1;fill-rule:nonzero;stroke:none"
             id="path140"
             inkscape:connector-curvature="0" /></g><g
           id="g142"
           transform="translate(397.8848,85.7383)"><path
             d="m 0,0 c 1.559,0 2.818,-1.262 2.818,-2.818 0,-1.555 -1.259,-2.815 -2.818,-2.815 -1.555,0 -2.814,1.26 -2.814,2.815 C -2.814,-1.262 -1.555,0 0,0 m 8.242,-0.07 c 0.961,0 1.744,-0.782 1.744,-1.743 0,-0.962 -0.783,-1.744 -1.744,-1.744 -0.961,0 -1.742,0.782 -1.742,1.744 0,0.961 0.781,1.743 1.742,1.743 M -4.027,-0.736 C -4.068,-0.797 -4.68,-1.662 -5.162,-2.99 -5.523,-3.984 -5.508,-5.434 -5.508,-5.449 l 0,-0.004 c 0,-0.34 0.02,-0.676 0.057,-1.01 0,-0.008 0,-0.014 0.002,-0.017 0.004,-0.043 0.011,-0.084 0.015,-0.127 0.03,-0.233 0.069,-0.467 0.12,-0.704 0.699,-0.177 4.876,-1.152 9.546,-0.502 2.928,0.409 5.151,1.274 6.5,1.928 1.122,0.543 1.842,1.035 2.12,1.239 C 12.574,-3.619 11.811,-2.006 11.109,-1 9.104,1.865 6.941,2.6 5.832,2.783 5.408,2.852 5.068,2.893 4.588,2.893 4.141,2.893 3.586,2.855 2.846,2.777 2.102,2.701 1.273,2.506 0.313,2.182 -1.035,1.73 -2.254,1.023 -3.214,0.135 L -3.246,0.104 c -0.143,-0.131 -0.44,-0.407 -0.781,-0.84"
             style="fill:#ffffff;fill-opacity:1;fill-rule:nonzero;stroke:none"
             id="path144"
             inkscape:connector-curvature="0" /></g><g
           id="g146"><g
             id="g148" /><g
             id="g242"><g
               clip-path="url(#clipPath150)"
               id="g244"
               style="opacity:0.119995"><g
                 id="g246"><g
                   id="g248" /><g
                   id="g250"><g
                     clip-path="url(#clipPath154)"
                     id="g252"
                     style="opacity:0"><g
                       transform="translate(721.7734,523.4883)"
                       id="g254"><path
                         d="M 0,0 C 2.448,112.704 -127.437,206.934 -290.104,210.469 -452.773,214.003 -561.92,120.786 -567.828,8.211 -573.951,-108.488 -322.935,-219.718 -271.736,-199.313 -130.745,-181.602 -2.319,-106.681 0,0"
                         style="fill:#ffffff;fill-opacity:1;fill-rule:nonzero;stroke:none"
                         id="path256"
                         inkscape:connector-curvature="0" /></g></g></g></g><g
                 id="g258"><g
                   id="g260" /><g
                   id="g262"><g
                     clip-path="url(#clipPath158)"
                     id="g264"
                     style="opacity:0.04762268"><g
                       transform="translate(434.5654,734.1699)"
                       id="g266"><path
                         d="m 0,0 c -162.668,3.535 -272.992,-89.458 -278.734,-202.039 -5.042,-98.921 170.503,-193.391 259.255,-208.016 14.518,-2.843 26.019,-3.173 32.943,-0.428 25.506,3.204 52.98,8.193 79.32,16.134 109.108,29.997 195.421,96.498 197.32,183.88 C 292.553,-97.766 162.668,-3.535 0,0"
                         style="fill:#f3f3f3;fill-opacity:1;fill-rule:nonzero;stroke:none"
                         id="path268"
                         inkscape:connector-curvature="0" /></g></g></g></g><g
                 id="g270"><g
                   id="g272" /><g
                   id="g274"><g
                     clip-path="url(#clipPath162)"
                     id="g276"
                     style="opacity:0.09524542"><g
                       transform="translate(437.4629,734.3823)"
                       id="g278"><path
                         d="m 0,0 c -162.669,3.535 -274.169,-89.233 -279.747,-201.821 -4.9,-99.067 167.162,-193.151 258.502,-207.964 13.397,-3.067 23.82,-3.754 29.803,-1.399 24.23,3.044 52.85,7.593 80.433,16.157 111.192,28.787 199.193,96.212 201.113,184.558 C 292.553,-97.765 162.668,-3.535 0,0"
                         style="fill:#e7e7e7;fill-opacity:1;fill-rule:nonzero;stroke:none"
                         id="path280"
                         inkscape:connector-curvature="0" /></g></g></g></g><g
                 id="g282"><g
                   id="g284" /><g
                   id="g286"><g
                     clip-path="url(#clipPath166)"
                     id="g288"
                     style="opacity:0.14285302"><g
                       transform="translate(440.3594,734.5947)"
                       id="g290"><path
                         d="m 0,0 c -162.669,3.535 -275.345,-89.008 -280.758,-201.602 -4.759,-99.215 163.82,-192.914 257.746,-207.913 12.278,-3.29 21.624,-4.336 26.664,-2.37 22.956,2.884 52.723,6.992 81.548,16.181 113.276,27.576 202.963,95.924 204.905,185.235 C 292.554,-97.765 162.668,-3.535 0,0"
                         style="fill:#dbdbdb;fill-opacity:1;fill-rule:nonzero;stroke:none"
                         id="path292"
                         inkscape:connector-curvature="0" /></g></g></g></g><g
                 id="g294"><g
                   id="g296" /><g
                   id="g298"><g
                     clip-path="url(#clipPath170)"
                     id="g300"
                     style="opacity:0.19047499"><g
                       transform="translate(443.2568,734.8076)"
                       id="g302"><path
                         d="m 0,0 c -162.669,3.535 -276.522,-88.784 -281.771,-201.383 -4.617,-99.362 160.479,-192.677 256.993,-207.861 11.158,-3.515 19.425,-4.918 23.525,-3.342 21.68,2.724 52.592,6.393 82.66,16.203 115.36,26.366 206.735,95.638 208.697,185.914 C 292.553,-97.765 162.668,-3.534 0,0"
                         style="fill:#cecece;fill-opacity:1;fill-rule:nonzero;stroke:none"
                         id="path304"
                         inkscape:connector-curvature="0" /></g></g></g></g><g
                 id="g306"><g
                   id="g308" /><g
                   id="g310"><g
                     clip-path="url(#clipPath174)"
                     id="g312"
                     style="opacity:0.23809802"><g
                       transform="translate(446.1533,735.0205)"
                       id="g314"><path
                         d="m 0,0 c -162.668,3.535 -277.698,-88.559 -282.782,-201.165 -4.476,-99.509 157.138,-192.438 256.238,-207.81 10.037,-3.738 17.228,-5.499 20.386,-4.312 20.405,2.563 52.463,5.792 83.774,16.226 117.443,25.155 210.505,95.351 212.488,186.592 C 292.554,-97.765 162.668,-3.535 0,0"
                         style="fill:#c2c2c2;fill-opacity:1;fill-rule:nonzero;stroke:none"
                         id="path316"
                         inkscape:connector-curvature="0" /></g></g></g></g><g
                 id="g318"><g
                   id="g320" /><g
                   id="g322"><g
                     clip-path="url(#clipPath178)"
                     id="g324"
                     style="opacity:0.285721"><g
                       transform="translate(449.0508,735.2329)"
                       id="g326"><path
                         d="m 0,0 c -162.669,3.535 -278.875,-88.334 -283.794,-200.946 -4.334,-99.656 153.796,-192.2 255.483,-207.759 8.917,-3.961 15.03,-6.081 17.247,-5.283 19.129,2.404 52.334,5.193 84.887,16.249 119.527,23.944 214.277,95.065 216.281,187.271 C 292.553,-97.765 162.668,-3.535 0,0"
                         style="fill:#b6b6b6;fill-opacity:1;fill-rule:nonzero;stroke:none"
                         id="path328"
                         inkscape:connector-curvature="0" /></g></g></g></g><g
                 id="g330"><g
                   id="g332" /><g
                   id="g334"><g
                     clip-path="url(#clipPath182)"
                     id="g336"
                     style="opacity:0.33332801"><g
                       transform="translate(451.9473,735.4453)"
                       id="g338"><path
                         d="m 0,0 c -162.668,3.535 -280.051,-88.109 -284.806,-200.728 -4.192,-99.803 150.455,-191.96 254.729,-207.706 7.798,-4.185 12.833,-6.663 14.108,-6.254 17.854,2.243 52.203,4.591 86.001,16.272 121.611,22.732 218.047,94.776 220.073,187.947 C 292.553,-97.765 162.668,-3.534 0,0"
                         style="fill:#aaaaaa;fill-opacity:1;fill-rule:nonzero;stroke:none"
                         id="path340"
                         inkscape:connector-curvature="0" /></g></g></g></g><g
                 id="g342"><g
                   id="g344" /><g
                   id="g346"><g
                     clip-path="url(#clipPath186)"
                     id="g348"
                     style="opacity:0.38095099"><g
                       transform="translate(454.8438,735.6582)"
                       id="g350"><path
                         d="m 0,0 c -162.668,3.535 -281.227,-87.885 -285.817,-200.509 -4.051,-99.951 147.114,-191.723 253.974,-207.655 6.678,-4.409 10.635,-7.244 10.97,-7.226 16.578,2.083 52.073,3.992 87.113,16.295 123.695,21.523 221.819,94.491 223.865,188.626 C 292.554,-97.765 162.669,-3.535 0,0"
                         style="fill:#9e9e9e;fill-opacity:1;fill-rule:nonzero;stroke:none"
                         id="path352"
                         inkscape:connector-curvature="0" /></g></g></g></g><g
                 id="g354"><g
                   id="g356" /><g
                   id="g358"><g
                     clip-path="url(#clipPath190)"
                     id="g360"
                     style="opacity:0.42857403"><g
                       transform="translate(457.7412,735.8711)"
                       id="g362"><path
                         d="m 0,0 c -162.669,3.534 -282.404,-87.661 -286.829,-200.291 -3.91,-100.098 143.771,-191.484 253.22,-207.604 5.557,-4.631 8.436,-7.825 7.83,-8.196 15.303,1.923 51.944,3.392 88.227,16.319 125.778,20.31 225.589,94.202 227.656,189.303 C 292.554,-97.766 162.668,-3.535 0,0"
                         style="fill:#929292;fill-opacity:1;fill-rule:nonzero;stroke:none"
                         id="path364"
                         inkscape:connector-curvature="0" /></g></g></g></g><g
                 id="g366"><g
                   id="g368" /><g
                   id="g370"><g
                     clip-path="url(#clipPath194)"
                     id="g372"
                     style="opacity:0.47619599"><g
                       transform="translate(460.6387,736.0835)"
                       id="g374"><path
                         d="m 0,0 c -162.669,3.535 -283.581,-87.436 -287.842,-200.072 -3.768,-100.245 140.431,-191.247 252.466,-207.553 4.437,-4.855 6.239,-8.406 4.69,-9.167 14.029,1.762 51.816,2.792 89.342,16.341 127.861,19.101 229.36,93.916 231.448,189.982 C 292.553,-97.765 162.668,-3.535 0,0"
                         style="fill:#868686;fill-opacity:1;fill-rule:nonzero;stroke:none"
                         id="path376"
                         inkscape:connector-curvature="0" /></g></g></g></g><g
                 id="g378"><g
                   id="g380" /><g
                   id="g382"><g
                     clip-path="url(#clipPath198)"
                     id="g384"
                     style="opacity:0.52380401"><g
                       transform="translate(463.5352,736.2964)"
                       id="g386"><path
                         d="m 0,0 c -162.669,3.535 -284.757,-87.211 -288.853,-199.854 -3.627,-100.392 137.089,-191.009 251.71,-207.501 3.318,-5.079 4.042,-8.988 1.553,-10.138 12.753,1.602 51.686,2.192 90.454,16.365 129.946,17.888 233.131,93.628 235.24,190.659 C 292.553,-97.765 162.668,-3.535 0,0"
                         style="fill:#797979;fill-opacity:1;fill-rule:nonzero;stroke:none"
                         id="path388"
                         inkscape:connector-curvature="0" /></g></g></g></g><g
                 id="g390"><g
                   id="g392" /><g
                   id="g394"><g
                     clip-path="url(#clipPath202)"
                     id="g396"
                     style="opacity:0.57142597"><g
                       transform="translate(466.4326,736.5088)"
                       id="g398"><path
                         d="m 0,0 c -162.669,3.535 -285.934,-86.986 -289.865,-199.635 -3.487,-100.539 133.748,-190.77 250.956,-207.45 2.197,-5.303 1.844,-9.569 -1.587,-11.108 11.477,1.441 51.556,1.59 91.567,16.387 132.03,16.678 236.903,93.342 239.033,191.337 C 292.553,-97.765 162.668,-3.535 0,0"
                         style="fill:#6d6d6d;fill-opacity:1;fill-rule:nonzero;stroke:none"
                         id="path400"
                         inkscape:connector-curvature="0" /></g></g></g></g><g
                 id="g402"><g
                   id="g404" /><g
                   id="g406"><g
                     clip-path="url(#clipPath206)"
                     id="g408"
                     style="opacity:0.61904901"><g
                       transform="translate(469.3291,736.7217)"
                       id="g410"><path
                         d="m 0,0 c -162.668,3.535 -287.11,-86.762 -290.877,-199.417 -3.345,-100.686 130.407,-190.532 250.202,-207.398 1.077,-5.526 -0.354,-10.151 -4.725,-12.08 10.202,1.283 51.425,0.992 92.68,16.411 134.113,15.467 240.673,93.054 242.824,192.015 C 292.554,-97.765 162.668,-3.535 0,0"
                         style="fill:#616161;fill-opacity:1;fill-rule:nonzero;stroke:none"
                         id="path412"
                         inkscape:connector-curvature="0" /></g></g></g></g><g
                 id="g414"><g
                   id="g416" /><g
                   id="g418"><g
                     clip-path="url(#clipPath210)"
                     id="g420"
                     style="opacity:0.66667199"><g
                       transform="translate(472.2266,736.9341)"
                       id="g422"><path
                         d="m 0,0 c -162.669,3.535 -288.287,-86.537 -291.889,-199.198 -3.203,-100.833 127.065,-190.295 249.448,-207.346 -0.043,-5.75 -2.553,-10.734 -7.866,-13.051 8.927,1.122 51.297,0.39 93.794,16.432 136.197,14.258 244.445,92.769 246.617,192.694 C 292.553,-97.765 162.668,-3.535 0,0"
                         style="fill:#555555;fill-opacity:1;fill-rule:nonzero;stroke:none"
                         id="path424"
                         inkscape:connector-curvature="0" /></g></g></g></g><g
                 id="g426"><g
                   id="g428" /><g
                   id="g430"><g
                     clip-path="url(#clipPath214)"
                     id="g432"
                     style="opacity:0.714279"><g
                       transform="translate(475.123,737.1465)"
                       id="g434"><path
                         d="m 0,0 c -162.668,3.535 -289.463,-86.313 -292.9,-198.979 -3.062,-100.98 123.723,-190.056 248.693,-207.295 -1.163,-5.974 -4.75,-11.314 -11.005,-14.022 7.652,0.961 51.167,-0.21 94.908,16.456 138.281,13.046 248.215,92.482 250.408,193.371 C 292.554,-97.765 162.668,-3.534 0,0"
                         style="fill:#494949;fill-opacity:1;fill-rule:nonzero;stroke:none"
                         id="path436"
                         inkscape:connector-curvature="0" /></g></g></g></g><g
                 id="g438"><g
                   id="g440" /><g
                   id="g442"><g
                     clip-path="url(#clipPath218)"
                     id="g444"
                     style="opacity:0.76190198"><g
                       transform="translate(478.0195,737.3594)"
                       id="g446"><path
                         d="m 0,0 c -162.668,3.535 -290.64,-86.088 -293.912,-198.76 -2.92,-101.128 120.383,-189.819 247.938,-207.245 -2.282,-6.196 -6.947,-11.895 -14.142,-14.992 6.376,0.801 51.037,-0.81 96.02,16.479 140.365,11.835 251.987,92.194 254.201,194.05 C 292.555,-97.765 162.668,-3.534 0,0"
                         style="fill:#3d3d3d;fill-opacity:1;fill-rule:nonzero;stroke:none"
                         id="path448"
                         inkscape:connector-curvature="0" /></g></g></g></g><g
                 id="g450"><g
                   id="g452" /><g
                   id="g454"><g
                     clip-path="url(#clipPath222)"
                     id="g456"
                     style="opacity:0.80952501"><g
                       transform="translate(480.917,737.5723)"
                       id="g458"><path
                         d="m 0,0 c -162.668,3.535 -291.816,-85.863 -294.924,-198.542 -2.779,-101.275 117.041,-189.581 247.184,-207.193 -3.403,-6.42 -9.146,-12.477 -17.282,-15.963 5.101,0.64 50.908,-1.41 97.134,16.502 142.448,10.625 255.757,91.907 257.992,194.727 C 292.554,-97.766 162.668,-3.535 0,0"
                         style="fill:#313131;fill-opacity:1;fill-rule:nonzero;stroke:none"
                         id="path460"
                         inkscape:connector-curvature="0" /></g></g></g></g><g
                 id="g462"><g
                   id="g464" /><g
                   id="g466"><g
                     clip-path="url(#clipPath226)"
                     id="g468"
                     style="opacity:0.85714698"><g
                       transform="translate(483.8135,737.7852)"
                       id="g470"><path
                         d="m 0,0 c -162.668,3.534 -292.993,-85.639 -295.936,-198.324 -2.637,-101.422 113.701,-189.342 246.43,-207.142 -4.523,-6.643 -11.343,-13.057 -20.421,-16.933 3.826,0.48 50.779,-2.01 98.248,16.524 144.531,9.414 259.528,91.621 261.784,195.406 C 292.554,-97.766 162.668,-3.535 0,0"
                         style="fill:#242424;fill-opacity:1;fill-rule:nonzero;stroke:none"
                         id="path472"
                         inkscape:connector-curvature="0" /></g></g></g></g><g
                 id="g474"><g
                   id="g476" /><g
                   id="g478"><g
                     clip-path="url(#clipPath230)"
                     id="g480"
                     style="opacity:0.904755"><g
                       transform="translate(486.7109,737.9976)"
                       id="g482"><path
                         d="m 0,0 c -162.668,3.535 -294.169,-85.414 -296.948,-198.105 -2.496,-101.569 110.359,-189.104 245.675,-207.091 -5.643,-6.867 -13.541,-13.638 -23.56,-17.904 2.551,0.32 50.648,-2.61 99.361,16.548 146.616,8.203 263.299,91.333 265.576,196.083 C 292.554,-97.765 162.668,-3.535 0,0"
                         style="fill:#181818;fill-opacity:1;fill-rule:nonzero;stroke:none"
                         id="path484"
                         inkscape:connector-curvature="0" /></g></g></g></g><g
                 id="g486"><g
                   id="g488" /><g
                   id="g490"><g
                     clip-path="url(#clipPath234)"
                     id="g492"
                     style="opacity:0.95237702"><g
                       transform="translate(489.6074,738.21)"
                       id="g494"><path
                         d="m 0,0 c -162.668,3.535 -295.346,-85.189 -297.959,-197.886 -2.355,-101.716 107.017,-188.867 244.92,-207.039 -6.763,-7.091 -15.738,-14.221 -26.698,-18.876 1.275,0.16 50.518,-3.21 100.474,16.572 148.699,6.991 267.07,91.045 269.368,196.761 C 292.554,-97.765 162.668,-3.534 0,0"
                         style="fill:#0c0c0c;fill-opacity:1;fill-rule:nonzero;stroke:none"
                         id="path496"
                         inkscape:connector-curvature="0" /></g></g></g></g><g
                 id="g498"><g
                   id="g500" /><g
                   id="g502"><g
                     clip-path="url(#clipPath238)"
                     id="g504"><g
                       transform="translate(782.6094,527.9541)"
                       id="g506"><path
                         d="m 0,0 c 2.449,112.704 -127.437,206.934 -290.104,210.469 -162.669,3.534 -296.523,-84.965 -298.972,-197.668 -2.214,-101.864 103.676,-188.628 244.166,-206.988 -7.883,-7.314 -17.937,-14.802 -29.838,-19.846 0,0 50.39,-3.811 101.588,16.594 C -122.378,-191.658 -2.319,-106.68 0,0"
                         style="fill:#000000;fill-opacity:1;fill-rule:nonzero;stroke:none"
                         id="path508"
                         inkscape:connector-curvature="0" /></g></g></g></g></g></g></g><g
           id="g510"
           transform="translate(782.6094,527.9541)"><path
             d="m 0,0 c 2.449,112.704 -127.437,206.934 -290.104,210.469 -162.669,3.534 -273.973,-84.719 -276.422,-197.423 -2.214,-101.863 81.126,-188.873 221.616,-207.233 -7.883,-7.314 -17.937,-14.802 -29.838,-19.846 0,0 50.39,-3.811 101.588,16.594 C -122.378,-191.658 -2.319,-106.68 0,0"
             style="fill:#ffffff;fill-opacity:1;fill-rule:nonzero;stroke:none"
             id="path512"
             inkscape:connector-curvature="0" /></g><g
           id="g514"
           transform="translate(632.9014,701.5425)"><path
             d="m 0,0 c 81.653,-35.464 135.585,-98.78 134.041,-169.849 -2.2,-101.21 -104.963,-181.247 -248.015,-186.733 -35.975,-20.786 -82.365,-22.632 -85.747,-25.041 0,0 37.805,0.256 86.378,19.615 143.05,5.484 256.954,86.105 259.155,187.316 C 147.43,-100.261 88.199,-34.334 0,0"
             style="fill:#f2f2f2;fill-opacity:1;fill-rule:nonzero;stroke:none"
             id="path516"
             inkscape:connector-curvature="0" /></g></g></g><text
       transform="matrix(1,0,0,-1,363.6445,532.0957)"
       style="font-variant:normal;font-weight:normal;font-stretch:normal;font-size:129.11520386px;font-family:'Bebas Neue';-inkscape-font-specification:BebasNeue;writing-mode:lr-tb;fill:#80b9c3;fill-opacity:1;fill-rule:nonzero;stroke:none"
       id="text518"><tspan
         sodipodi:role="line"
         id="tspan520"
         x="0"
         y="0">informieren</tspan></text>
<text
       transform="matrix(1,0,0,-1,363.645,456.2847)"
       style="font-variant:normal;font-weight:normal;font-stretch:normal;font-size:83px;font-family:'Bebas Neue';-inkscape-font-specification:BebasNeue;writing-mode:lr-tb;fill:#80b9c3;fill-opacity:1;fill-rule:nonzero;stroke:none"
       id="text522"><tspan
         x="0 44.903 78.683998 112.05 146.412 176.95599 206.504 222.274 257.715"
         y="0"
         sodipodi:role="line"
         id="tspan524">MARKETING</tspan></text>
<g
       id="g526"><g
         id="g528"
         clip-path="url(#clipPath530)"><g
           id="g534"
           transform="translate(136.2935,301.5918)"><path
             d="m 0,0 c -0.353,3.411 -3.404,5.889 -6.814,5.538 l -29.92,-3.097 c -3.411,-0.353 -5.889,-3.405 -5.536,-6.814 l 1.982,-19.16 c 0.353,-3.41 3.404,-5.89 6.815,-5.535 l 29.919,3.094 c 3.41,0.353 5.889,3.404 5.536,6.815 L 0,0 Z"
             style="fill:#c1272d;fill-opacity:1;fill-rule:nonzero;stroke:none"
             id="path536"
             inkscape:connector-curvature="0" /></g><g
           id="g538"
           transform="translate(95.9282,301.3262)"><path
             d="M 0,0 C -0.044,0.425 -0.423,0.733 -0.848,0.689 -1.272,0.645 -1.581,0.266 -1.537,-0.16 l 2.784,-26.898 c 0.044,-0.423 0.423,-0.733 0.848,-0.689 0.425,0.044 0.733,0.424 0.689,0.849 L 0,0 Z"
             style="fill:#de4d31;fill-opacity:1;fill-rule:nonzero;stroke:none"
             id="path540"
             inkscape:connector-curvature="0" /></g><g
           id="g542"
           transform="translate(192.835,340.0957)"><path
             d="m 0,0 -78.766,-8.152 c -4.176,-0.432 -7.739,-3.131 -10.346,-5.731 l 12.028,1.244 1.113,-10.758 -17.128,-1.773 c 0.052,-0.771 -0.447,-1.03 -0.407,-1.421 l 5.232,-50.557 c 0.913,-8.822 9.278,-14.918 18.099,-14.005 l 78.765,8.15 c 8.82,0.913 15.487,8.565 14.575,17.386 l -5.232,50.558 C 17.02,-6.238 8.82,0.912 0,0"
             style="fill:#e6e6e6;fill-opacity:1;fill-rule:nonzero;stroke:none"
             id="path544"
             inkscape:connector-curvature="0" /></g><g
           id="g546"
           transform="translate(115.7505,327.457)"><path
             d="m 0,0 -12.028,-1.244 c -2.579,-3.374 -4.082,-7.413 -3.986,-11.287 L 1.114,-10.759 0,0 Z"
             style="fill:#ffffff;fill-opacity:1;fill-rule:nonzero;stroke:none"
             id="path548"
             inkscape:connector-curvature="0" /></g><g
           id="g550"
           transform="translate(185.6646,165.9121)"><path
             d="M 0,0 C -0.004,0.04 0.389,0.118 0.384,0.161 L -7.78,79.06 c -0.913,8.821 -9.51,14.915 -19.078,13.924 l -6.93,-0.716 c -9.569,-0.991 -17.175,-8.76 -16.262,-17.581 l 8.165,-78.9 c 0.912,-8.821 9.901,-14.412 19.47,-13.421 l 6.497,0.672 0.433,0.044 16.025,1.659 c 4.546,0.47 7.294,3.482 6.861,7.671 L 7.318,-6.789 C 6.927,-3.01 3.987,-0.17 0,0"
             style="fill:#a53826;fill-opacity:1;fill-rule:nonzero;stroke:none"
             id="path552"
             inkscape:connector-curvature="0" /></g><g
           id="g554"
           transform="translate(384.4556,317.917)"><path
             d="m 0,0 c 1.666,-16.11 -10.04,-30.521 -26.15,-32.187 -16.108,-1.667 -30.517,10.041 -32.185,26.15 -1.667,16.108 10.04,30.518 26.149,32.185 C -16.077,27.814 -1.667,16.108 0,0"
             style="fill:#a53826;fill-opacity:1;fill-rule:nonzero;stroke:none"
             id="path556"
             inkscape:connector-curvature="0" /></g><g
           id="g558"
           transform="translate(378.4487,190.916)"><path
             d="m 0,0 c 0.625,-6.036 -3.762,-11.436 -9.799,-12.061 l -0.428,-0.043 c -6.037,-0.625 -11.436,3.762 -12.062,9.797 L -48.42,250.205 c -0.625,6.036 3.763,11.436 9.799,12.06 l 0.428,0.045 c 6.037,0.624 11.436,-3.763 12.061,-9.799 L 0,0 Z"
             style="fill:#de4d31;fill-opacity:1;fill-rule:nonzero;stroke:none"
             id="path560"
             inkscape:connector-curvature="0" /></g><g
           id="g562"
           transform="translate(196.2026,255.6064)"><path
             d="m 0,0 c 0.913,-8.822 -5.497,-16.712 -14.318,-17.624 l -39.532,-4.092 c -8.82,-0.913 -16.712,5.498 -17.624,14.32 l -8.704,84.106 c -0.913,8.821 5.497,16.711 14.318,17.624 l 39.533,4.091 c 8.82,0.913 16.711,-5.498 17.623,-14.32 L 0,0 Z"
             style="fill:#de4d31;fill-opacity:1;fill-rule:nonzero;stroke:none"
             id="path564"
             inkscape:connector-curvature="0" /></g><g
           id="g566"
           transform="translate(330.1143,440.2974)"><path
             d="m 0,0 c 0,0 -16.409,-89.135 -140.913,-102.02 l 8.485,-81.986 c 0,0 152.125,-6.321 158.515,-68.076 L 0,0 Z"
             style="fill:#e6e6e6;fill-opacity:1;fill-rule:nonzero;stroke:none"
             id="path568"
             inkscape:connector-curvature="0" /></g><g
           id="g570"
           transform="translate(189.5659,334.751)"><path
             d="M 0,0 1.095,-10.576 C 125.599,2.31 142.008,91.444 142.008,91.444 l -1.095,10.577 C 140.913,102.021 124.504,12.886 0,0"
             style="fill:#ffffff;fill-opacity:1;fill-rule:nonzero;stroke:none"
             id="path572"
             inkscape:connector-curvature="0" /></g><g
           id="g574"><g
             id="g576" /><g
             id="g582"><g
               clip-path="url(#clipPath578)"
               id="g584"
               style="opacity:0.10000598"><g
                 transform="translate(94.8154,289.5596)"
                 id="g586"><path
                   d="m 0,0 1.125,-10.857 c 0.353,-3.41 3.757,-5.727 7.168,-5.374 l 0.374,0.039 0.987,-9.537 c 0.913,-8.823 9.29,-15.033 18.111,-14.12 l 1.972,0.204 0.04,-0.394 c 0.689,-6.66 5.891,-11.89 11.519,-13.73 l 7.668,-74.091 c 0.912,-8.822 9.901,-14.412 19.47,-13.421 l 6.497,0.672 0.433,0.044 16.025,1.659 c 4.546,0.469 7.294,3.481 6.861,7.671 l -0.083,0.798 c -0.391,3.78 -3.331,6.62 -7.318,6.79 -0.004,0.04 0.389,0.118 0.384,0.161 l -7.565,73.11 4.083,0.423 c 8.819,0.911 15.951,8.649 15.038,17.47 l -0.016,0.156 0.006,-0.058 c 0,0 152.125,-6.321 158.516,-68.075 l 0.055,-0.532 c 0.624,-6.037 5.854,-10.441 11.89,-9.818 6.036,0.627 10.254,6.007 9.629,12.044 L 272.69,-0.402 c 11.122,5.112 18.193,16.888 16.868,29.698 -0.022,0.205 -0.091,0.661 -0.097,0.66 L 0,0 Z"
                   style="fill:#000000;fill-opacity:1;fill-rule:nonzero;stroke:none"
                   id="path588"
                   inkscape:connector-curvature="0" /></g></g></g></g><g
           id="g590"
           transform="translate(149.4126,210.9932)"><path
             d="m 0,0 c -1.494,3.38 -2.619,6.159 -0.113,7.267 l 34.351,15.18 c 2.506,1.105 5.749,-0.739 7.242,-4.121 1.495,-3.382 0.674,-7.021 -1.831,-8.128 L 5.298,-4.98 C 2.792,-6.089 1.495,-3.384 0,0"
             style="fill:#ffcca6;fill-opacity:1;fill-rule:nonzero;stroke:none"
             id="path592"
             inkscape:connector-curvature="0" /></g><g
           id="g594"
           transform="translate(149.2998,218.2598)"><path
             d="m 0,0 34.351,15.181 c 2.505,1.104 4.38,-0.618 4.38,-0.618 C 38.731,14.563 -2.506,-1.107 0,0"
             style="fill:#ddb192;fill-opacity:1;fill-rule:nonzero;stroke:none"
             id="path596"
             inkscape:connector-curvature="0" /></g><g
           id="g598"
           transform="translate(152.5952,207.2969)"><path
             d="M 0,0 C 0.013,-0.029 0.432,0.115 0.767,0.265 4.535,1.928 7.471,3.226 5.558,7.556 3.644,11.887 0.766,10.614 -3.002,8.949 -3.335,8.803 -3.785,8.563 -3.772,8.535 L 0,0 Z"
             style="fill:#f3ebd4;fill-opacity:1;fill-rule:nonzero;stroke:none"
             id="path600"
             inkscape:connector-curvature="0" /></g><g
           id="g602"
           transform="translate(154.168,198.2588)"><path
             d="m 0,0 c -1.494,3.381 -2.618,6.161 -0.112,7.269 l 34.35,15.177 c 2.507,1.107 5.748,-0.737 7.242,-4.12 1.496,-3.382 0.675,-7.02 -1.83,-8.128 L 5.298,-4.979 C 2.793,-6.086 1.495,-3.382 0,0"
             style="fill:#ffcca6;fill-opacity:1;fill-rule:nonzero;stroke:none"
             id="path604"
             inkscape:connector-curvature="0" /></g><g
           id="g606"
           transform="translate(154.0557,205.5273)"><path
             d="m 0,0 34.351,15.178 c 2.506,1.106 4.38,-0.615 4.38,-0.615 C 38.731,14.563 -2.505,-1.107 0,0"
             style="fill:#ddb192;fill-opacity:1;fill-rule:nonzero;stroke:none"
             id="path608"
             inkscape:connector-curvature="0" /></g><g
           id="g610"
           transform="translate(157.3511,194.5625)"><path
             d="M 0,0 C 0.012,-0.026 0.432,0.115 0.767,0.265 4.534,1.93 7.471,3.226 5.557,7.559 3.645,11.89 0.766,10.617 -3.002,8.95 -3.336,8.805 -3.784,8.565 -3.771,8.537 L 0,0 Z"
             style="fill:#f3ebd4;fill-opacity:1;fill-rule:nonzero;stroke:none"
             id="path612"
             inkscape:connector-curvature="0" /></g><g
           id="g614"
           transform="translate(158.1733,185.2285)"><path
             d="m 0,0 c -1.494,3.384 -2.618,6.163 -0.112,7.27 l 34.351,15.178 c 2.506,1.109 5.747,-0.734 7.242,-4.119 1.495,-3.381 0.674,-7.019 -1.832,-8.129 L 5.298,-4.975 C 2.793,-6.082 1.496,-3.381 0,0"
             style="fill:#ffcca6;fill-opacity:1;fill-rule:nonzero;stroke:none"
             id="path616"
             inkscape:connector-curvature="0" /></g><g
           id="g618"
           transform="translate(158.061,192.498)"><path
             d="m 0,0 34.352,15.179 c 2.505,1.108 4.379,-0.616 4.379,-0.616 C 38.731,14.563 -2.505,-1.106 0,0"
             style="fill:#ddb192;fill-opacity:1;fill-rule:nonzero;stroke:none"
             id="path620"
             inkscape:connector-curvature="0" /></g><g
           id="g622"
           transform="translate(161.356,181.5342)"><path
             d="M 0,0 C 0.013,-0.027 0.433,0.116 0.767,0.264 4.535,1.931 7.471,3.227 5.557,7.559 3.645,11.888 0.766,10.617 -3.002,8.952 -3.335,8.805 -3.784,8.566 -3.772,8.536 L 0,0 Z"
             style="fill:#f3ebd4;fill-opacity:1;fill-rule:nonzero;stroke:none"
             id="path624"
             inkscape:connector-curvature="0" /></g><g
           id="g626"
           transform="translate(167.7158,174.7529)"><path
             d="m 0,0 c -1.495,3.381 -2.62,6.159 -0.113,7.269 l 27.157,11.502 c 2.505,1.105 5.747,-0.739 7.242,-4.122 C 35.781,11.27 34.961,7.63 32.454,6.523 L 5.298,-4.978 C 2.792,-6.086 1.495,-3.383 0,0"
             style="fill:#ffcca6;fill-opacity:1;fill-rule:nonzero;stroke:none"
             id="path628"
             inkscape:connector-curvature="0" /></g><g
           id="g630"
           transform="translate(167.6025,182.0215)"><path
             d="m 0,0 27.157,11.502 c 2.505,1.105 4.38,-0.616 4.38,-0.616 C 31.537,10.886 -2.506,-1.109 0,0"
             style="fill:#ddb192;fill-opacity:1;fill-rule:nonzero;stroke:none"
             id="path632"
             inkscape:connector-curvature="0" /></g><g
           id="g634"
           transform="translate(170.897,171.0576)"><path
             d="M 0,0 C 0.013,-0.029 0.434,0.114 0.767,0.264 4.536,1.93 7.472,3.226 5.558,7.556 3.645,11.887 0.768,10.615 -3.001,8.95 -3.335,8.803 -3.784,8.565 -3.771,8.535 L 0,0 Z"
             style="fill:#f3ebd4;fill-opacity:1;fill-rule:nonzero;stroke:none"
             id="path636"
             inkscape:connector-curvature="0" /></g><g
           id="g638"
           transform="translate(105.0977,146.3379)"><path
             d="m 0,0 -105.098,-53.756 0,108.815 94.519,1.914 L 0,0 Z"
             style="fill:#000000;fill-opacity:1;fill-rule:nonzero;stroke:none"
             id="path640"
             inkscape:connector-curvature="0" /></g><g
           id="g642"
           transform="translate(95.0337,200.5371)"><path
             d="M 0,0 7.091,0.886 19.258,-48.617 9.629,-51.857 0,0 Z"
             style="fill:#ffffff;fill-opacity:1;fill-rule:nonzero;stroke:none"
             id="path644"
             inkscape:connector-curvature="0" /></g><g
           id="g646"
           transform="translate(102.4185,199.7344)"><path
             d="M 0,0 10.74,3.933 28.855,-11.065 28.929,-39.383 11.068,-44.571 0,0 Z"
             style="fill:#ffcea4;fill-opacity:1;fill-rule:nonzero;stroke:none"
             id="path648"
             inkscape:connector-curvature="0" /></g><g
           id="g650"
           transform="translate(111.8213,203.4326)"><path
             d="M 0,0 C -2.995,-8.933 -6.159,-19.954 -1.664,-27.456 8.822,-44.966 28.718,-45.271 28.718,-45.271 22.999,-23.258 20.526,-1.222 19.659,7.051 L 0,0 Z"
             style="fill:#f7be97;fill-opacity:1;fill-rule:nonzero;stroke:none"
             id="path652"
             inkscape:connector-curvature="0" /></g><g
           id="g654"
           transform="translate(144.4683,156.9424)"><path
             d="m 0,0 c 0,0 -20.912,-0.452 -31.219,20.117 -10.309,20.57 12.113,58.171 15.341,59.045 3.23,0.876 35.433,10.946 35.433,10.946 0,0 6.444,-10.678 -3.922,-15.918 C 5.268,68.952 -6.662,62.858 -6.662,62.858 -6.662,62.858 -4.25,38.556 0,0"
             style="fill:#ffcca8;fill-opacity:1;fill-rule:nonzero;stroke:none"
             id="path656"
             inkscape:connector-curvature="0" /></g><g
           id="g658"
           transform="translate(152.7466,243.5332)"><path
             d="m 0,0 c 0,0 0.557,-1.985 3.258,-2.045 l 7.548,1.825 c 0,0 0.111,2.34 -1.083,3.253 L 0,0 Z"
             style="fill:#ffdcc5;fill-opacity:1;fill-rule:nonzero;stroke:none"
             id="path660"
             inkscape:connector-curvature="0" /></g><g
           id="g662"
           transform="translate(0,171.0537)"><path
             d="M 0,0 96.537,21.389 95.263,28.249 0,21.389 0,0 Z"
             style="fill:#333333;fill-opacity:1;fill-rule:nonzero;stroke:none"
             id="path664"
             inkscape:connector-curvature="0" /></g><g
           id="g666"
           transform="translate(95.2627,199.3027)"><path
             d="M 0,0 7.156,0.942 8.172,-3.663 1.014,-5.459 0,0 Z"
             style="fill:#f2f2f2;fill-opacity:1;fill-rule:nonzero;stroke:none"
             id="path668"
             inkscape:connector-curvature="0" /></g></g></g></g></svg>