<?xml version="1.0" encoding="UTF-8" standalone="no"?>
<!-- Created with Inkscape (http://www.inkscape.org/) -->

<svg
   xmlns:dc="http://purl.org/dc/elements/1.1/"
   xmlns:cc="http://creativecommons.org/ns#"
   xmlns:rdf="http://www.w3.org/1999/02/22-rdf-syntax-ns#"
   xmlns:svg="http://www.w3.org/2000/svg"
   xmlns="http://www.w3.org/2000/svg"
   xmlns:sodipodi="http://sodipodi.sourceforge.net/DTD/sodipodi-0.dtd"
   xmlns:inkscape="http://www.inkscape.org/namespaces/inkscape"
   id="svg2"
   version="1.1"
   inkscape:version="0.91pre3 r13670"
   xml:space="preserve"
   width="1000"
   height="1000"
   viewBox="0 0 1000 1000"
   sodipodi:docname="inform.svg"
   inkscape:export-filename="C:\wamp\www\bote\app\images\mitteilen.png"
   inkscape:export-xdpi="90"
   inkscape:export-ydpi="90"><metadata
     id="metadata8"><rdf:RDF><cc:Work
         rdf:about=""><dc:format>image/svg+xml</dc:format><dc:type
           rdf:resource="http://purl.org/dc/dcmitype/StillImage" /><dc:title /></cc:Work></rdf:RDF></metadata><defs
     id="defs6"><clipPath
       clipPathUnits="userSpaceOnUse"
       id="clipPath18"><path
         d="M 0,800 800,800 800,0 0,0 0,800 Z"
         id="path20"
         inkscape:connector-curvature="0" /></clipPath><clipPath
       clipPathUnits="userSpaceOnUse"
       id="clipPath150"><path
         d="m 153.835,738.525 628.809,0 0,-424.886 -628.809,0 0,424.886 z"
         id="path152"
         inkscape:connector-curvature="0" /></clipPath><clipPath
       clipPathUnits="userSpaceOnUse"
       id="clipPath154"><path
         d="m 153.835,734.054 567.973,0 0,-412.314 -567.973,0 0,412.314 z"
         id="path156"
         inkscape:connector-curvature="0" /></clipPath><clipPath
       clipPathUnits="userSpaceOnUse"
       id="clipPath158"><path
         d="m 155.725,734.268 568.979,0 0,-412.472 -568.979,0 0,412.472 z"
         id="path160"
         inkscape:connector-curvature="0" /></clipPath><clipPath
       clipPathUnits="userSpaceOnUse"
       id="clipPath162"><path
         d="m 157.613,734.48 569.989,0 0,-412.69 -569.989,0 0,412.69 z"
         id="path164"
         inkscape:connector-curvature="0" /></clipPath><clipPath
       clipPathUnits="userSpaceOnUse"
       id="clipPath166"><path
         d="m 159.502,734.693 570.997,0 0,-412.974 -570.997,0 0,412.974 z"
         id="path168"
         inkscape:connector-curvature="0" /></clipPath><clipPath
       clipPathUnits="userSpaceOnUse"
       id="clipPath170"><path
         d="m 161.392,734.906 572.004,0 0,-413.327 -572.004,0 0,413.327 z"
         id="path172"
         inkscape:connector-curvature="0" /></clipPath><clipPath
       clipPathUnits="userSpaceOnUse"
       id="clipPath174"><path
         d="m 163.28,735.119 573.012,0 0,-413.752 -573.012,0 0,413.752 z"
         id="path176"
         inkscape:connector-curvature="0" /></clipPath><clipPath
       clipPathUnits="userSpaceOnUse"
       id="clipPath178"><path
         d="m 165.169,735.332 574.02,0 0,-414.253 -574.02,0 0,414.253 z"
         id="path180"
         inkscape:connector-curvature="0" /></clipPath><clipPath
       clipPathUnits="userSpaceOnUse"
       id="clipPath182"><path
         d="m 167.058,735.544 575.029,0 0,-414.831 -575.029,0 0,414.831 z"
         id="path184"
         inkscape:connector-curvature="0" /></clipPath><clipPath
       clipPathUnits="userSpaceOnUse"
       id="clipPath186"><path
         d="m 168.947,735.757 576.036,0 0,-415.488 -576.036,0 0,415.488 z"
         id="path188"
         inkscape:connector-curvature="0" /></clipPath><clipPath
       clipPathUnits="userSpaceOnUse"
       id="clipPath190"><path
         d="m 170.836,735.97 577.044,0 0,-416.19 -577.044,0 0,416.19 z"
         id="path192"
         inkscape:connector-curvature="0" /></clipPath><clipPath
       clipPathUnits="userSpaceOnUse"
       id="clipPath194"><path
         d="m 172.725,736.183 578.052,0 0,-416.891 -578.052,0 0,416.891 z"
         id="path196"
         inkscape:connector-curvature="0" /></clipPath><clipPath
       clipPathUnits="userSpaceOnUse"
       id="clipPath198"><path
         d="m 174.614,736.396 579.06,0 0,-417.592 -579.06,0 0,417.592 z"
         id="path200"
         inkscape:connector-curvature="0" /></clipPath><clipPath
       clipPathUnits="userSpaceOnUse"
       id="clipPath202"><path
         d="m 176.502,736.609 580.069,0 0,-418.294 -580.069,0 0,418.294 z"
         id="path204"
         inkscape:connector-curvature="0" /></clipPath><clipPath
       clipPathUnits="userSpaceOnUse"
       id="clipPath206"><path
         d="m 178.391,736.822 581.077,0 0,-418.995 -581.077,0 0,418.995 z"
         id="path208"
         inkscape:connector-curvature="0" /></clipPath><clipPath
       clipPathUnits="userSpaceOnUse"
       id="clipPath210"><path
         d="m 180.28,737.035 582.085,0 0,-419.696 -582.085,0 0,419.696 z"
         id="path212"
         inkscape:connector-curvature="0" /></clipPath><clipPath
       clipPathUnits="userSpaceOnUse"
       id="clipPath214"><path
         d="m 182.168,737.248 583.094,0 0,-420.397 -583.094,0 0,420.397 z"
         id="path216"
         inkscape:connector-curvature="0" /></clipPath><clipPath
       clipPathUnits="userSpaceOnUse"
       id="clipPath218"><path
         d="m 184.057,737.46 584.102,0 0,-421.098 -584.102,0 0,421.098 z"
         id="path220"
         inkscape:connector-curvature="0" /></clipPath><clipPath
       clipPathUnits="userSpaceOnUse"
       id="clipPath222"><path
         d="m 185.945,737.673 585.111,0 0,-421.799 -585.111,0 0,421.799 z"
         id="path224"
         inkscape:connector-curvature="0" /></clipPath><clipPath
       clipPathUnits="userSpaceOnUse"
       id="clipPath226"><path
         d="m 187.834,737.887 586.119,0 0,-422.501 -586.119,0 0,422.501 z"
         id="path228"
         inkscape:connector-curvature="0" /></clipPath><clipPath
       clipPathUnits="userSpaceOnUse"
       id="clipPath230"><path
         d="m 189.723,738.1 587.127,0 0,-423.203 -587.127,0 0,423.203 z"
         id="path232"
         inkscape:connector-curvature="0" /></clipPath><clipPath
       clipPathUnits="userSpaceOnUse"
       id="clipPath234"><path
         d="m 191.611,738.312 588.136,0 0,-424.029 -588.136,0 0,424.029 z"
         id="path236"
         inkscape:connector-curvature="0" /></clipPath><clipPath
       clipPathUnits="userSpaceOnUse"
       id="clipPath238"><path
         d="m 193.499,738.525 589.145,0 0,-424.886 -589.145,0 0,424.886 z"
         id="path240"
         inkscape:connector-curvature="0" /></clipPath><clipPath
       clipPathUnits="userSpaceOnUse"
       id="clipPath530"><path
         d="M 0,800 800,800 800,0 0,0 0,800 Z"
         id="path532"
         inkscape:connector-curvature="0" /></clipPath><clipPath
       clipPathUnits="userSpaceOnUse"
       id="clipPath578"><path
         d="m 94.8154,319.516 289.7166,0 0,-171.351 -289.7166,0 0,171.351 z"
         id="path580"
         inkscape:connector-curvature="0" /></clipPath></defs><sodipodi:namedview
     pagecolor="#ffffff"
     bordercolor="#666666"
     borderopacity="1"
     objecttolerance="10"
     gridtolerance="10"
     guidetolerance="10"
     inkscape:pageopacity="0"
     inkscape:pageshadow="2"
     inkscape:window-width="1920"
     inkscape:window-height="1017"
     id="namedview4"
     showgrid="false"
     inkscape:zoom="0.6675088"
     inkscape:cx="836.12384"
     inkscape:cy="545.41881"
     inkscape:window-x="1672"
     inkscape:window-y="-8"
     inkscape:window-maximized="1"
     inkscape:current-layer="g10" /><g
     id="g10"
     inkscape:groupmode="layer"
     inkscape:label="12618-NOJLQ4"
     transform="matrix(1.25,0,0,-1.25,0,1000)"><g
       id="g14"
       style="fill-opacity:1;fill:#80b9c3"
       inkscape:export-filename="C:\wamp\www\bote\app\images\inform.png"
       inkscape:export-xdpi="45.700573"
       inkscape:export-ydpi="45.700573"><g
         id="g146"
         style="fill:#80b9c3;fill-opacity:1"
         transform="translate(5.9924304,-15.580319)"><g
           id="g148"
           style="fill:#80b9c3;fill-opacity:1" /><g
           id="g242"
           style="fill:#80b9c3;fill-opacity:1"><g
             style="opacity:0.119995;fill:#80b9c3;fill-opacity:1"
             id="g244"
             clip-path="url(#clipPath150)"><g
               id="g246"
               style="fill:#80b9c3;fill-opacity:1"><g
                 id="g248"
                 style="fill:#80b9c3;fill-opacity:1" /><g
                 id="g250"
                 style="fill:#80b9c3;fill-opacity:1"><g
                   style="opacity:0;fill:#80b9c3;fill-opacity:1"
                   id="g252"
                   clip-path="url(#clipPath154)"><g
                     id="g254"
                     transform="translate(721.7734,523.4883)"
                     style="fill:#80b9c3;fill-opacity:1"><path
                       inkscape:connector-curvature="0"
                       id="path256"
                       style="fill:#80b9c3;fill-opacity:1;fill-rule:nonzero;stroke:none"
                       d="M 0,0 C 2.448,112.704 -127.437,206.934 -290.104,210.469 -452.773,214.003 -561.92,120.786 -567.828,8.211 -573.951,-108.488 -322.935,-219.718 -271.736,-199.313 -130.745,-181.602 -2.319,-106.681 0,0" /></g></g></g></g><g
               id="g258"
               style="fill:#80b9c3;fill-opacity:1"><g
                 id="g260"
                 style="fill:#80b9c3;fill-opacity:1" /><g
                 id="g262"
                 style="fill:#80b9c3;fill-opacity:1"><g
                   style="opacity:0.04762268;fill:#80b9c3;fill-opacity:1"
                   id="g264"
                   clip-path="url(#clipPath158)"><g
                     id="g266"
                     transform="translate(434.5654,734.1699)"
                     style="fill:#80b9c3;fill-opacity:1"><path
                       inkscape:connector-curvature="0"
                       id="path268"
                       style="fill:#80b9c3;fill-opacity:1;fill-rule:nonzero;stroke:none"
                       d="m 0,0 c -162.668,3.535 -272.992,-89.458 -278.734,-202.039 -5.042,-98.921 170.503,-193.391 259.255,-208.016 14.518,-2.843 26.019,-3.173 32.943,-0.428 25.506,3.204 52.98,8.193 79.32,16.134 109.108,29.997 195.421,96.498 197.32,183.88 C 292.553,-97.766 162.668,-3.535 0,0" /></g></g></g></g><g
               id="g270"
               style="fill:#80b9c3;fill-opacity:1"><g
                 id="g272"
                 style="fill:#80b9c3;fill-opacity:1" /><g
                 id="g274"
                 style="fill:#80b9c3;fill-opacity:1"><g
                   style="opacity:0.09524542;fill:#80b9c3;fill-opacity:1"
                   id="g276"
                   clip-path="url(#clipPath162)"><g
                     id="g278"
                     transform="translate(437.4629,734.3823)"
                     style="fill:#80b9c3;fill-opacity:1"><path
                       inkscape:connector-curvature="0"
                       id="path280"
                       style="fill:#80b9c3;fill-opacity:1;fill-rule:nonzero;stroke:none"
                       d="m 0,0 c -162.669,3.535 -274.169,-89.233 -279.747,-201.821 -4.9,-99.067 167.162,-193.151 258.502,-207.964 13.397,-3.067 23.82,-3.754 29.803,-1.399 24.23,3.044 52.85,7.593 80.433,16.157 111.192,28.787 199.193,96.212 201.113,184.558 C 292.553,-97.765 162.668,-3.535 0,0" /></g></g></g></g><g
               id="g282"
               style="fill:#80b9c3;fill-opacity:1"><g
                 id="g284"
                 style="fill:#80b9c3;fill-opacity:1" /><g
                 id="g286"
                 style="fill:#80b9c3;fill-opacity:1"><g
                   style="opacity:0.14285302;fill:#80b9c3;fill-opacity:1"
                   id="g288"
                   clip-path="url(#clipPath166)"><g
                     id="g290"
                     transform="translate(440.3594,734.5947)"
                     style="fill:#80b9c3;fill-opacity:1"><path
                       inkscape:connector-curvature="0"
                       id="path292"
                       style="fill:#80b9c3;fill-opacity:1;fill-rule:nonzero;stroke:none"
                       d="m 0,0 c -162.669,3.535 -275.345,-89.008 -280.758,-201.602 -4.759,-99.215 163.82,-192.914 257.746,-207.913 12.278,-3.29 21.624,-4.336 26.664,-2.37 22.956,2.884 52.723,6.992 81.548,16.181 113.276,27.576 202.963,95.924 204.905,185.235 C 292.554,-97.765 162.668,-3.535 0,0" /></g></g></g></g><g
               id="g294"
               style="fill:#80b9c3;fill-opacity:1"><g
                 id="g296"
                 style="fill:#80b9c3;fill-opacity:1" /><g
                 id="g298"
                 style="fill:#80b9c3;fill-opacity:1"><g
                   style="opacity:0.19047499;fill:#80b9c3;fill-opacity:1"
                   id="g300"
                   clip-path="url(#clipPath170)"><g
                     id="g302"
                     transform="translate(443.2568,734.8076)"
                     style="fill:#80b9c3;fill-opacity:1"><path
                       inkscape:connector-curvature="0"
                       id="path304"
                       style="fill:#80b9c3;fill-opacity:1;fill-rule:nonzero;stroke:none"
                       d="m 0,0 c -162.669,3.535 -276.522,-88.784 -281.771,-201.383 -4.617,-99.362 160.479,-192.677 256.993,-207.861 11.158,-3.515 19.425,-4.918 23.525,-3.342 21.68,2.724 52.592,6.393 82.66,16.203 115.36,26.366 206.735,95.638 208.697,185.914 C 292.553,-97.765 162.668,-3.534 0,0" /></g></g></g></g><g
               id="g306"
               style="fill:#80b9c3;fill-opacity:1"><g
                 id="g308"
                 style="fill:#80b9c3;fill-opacity:1" /><g
                 id="g310"
                 style="fill:#80b9c3;fill-opacity:1"><g
                   style="opacity:0.23809802;fill:#80b9c3;fill-opacity:1"
                   id="g312"
                   clip-path="url(#clipPath174)"><g
                     id="g314"
                     transform="translate(446.1533,735.0205)"
                     style="fill:#80b9c3;fill-opacity:1"><path
                       inkscape:connector-curvature="0"
                       id="path316"
                       style="fill:#80b9c3;fill-opacity:1;fill-rule:nonzero;stroke:none"
                       d="m 0,0 c -162.668,3.535 -277.698,-88.559 -282.782,-201.165 -4.476,-99.509 157.138,-192.438 256.238,-207.81 10.037,-3.738 17.228,-5.499 20.386,-4.312 20.405,2.563 52.463,5.792 83.774,16.226 117.443,25.155 210.505,95.351 212.488,186.592 C 292.554,-97.765 162.668,-3.535 0,0" /></g></g></g></g><g
               id="g318"
               style="fill:#80b9c3;fill-opacity:1"><g
                 id="g320"
                 style="fill:#80b9c3;fill-opacity:1" /><g
                 id="g322"
                 style="fill:#80b9c3;fill-opacity:1"><g
                   style="opacity:0.285721;fill:#80b9c3;fill-opacity:1"
                   id="g324"
                   clip-path="url(#clipPath178)"><g
                     id="g326"
                     transform="translate(449.0508,735.2329)"
                     style="fill:#80b9c3;fill-opacity:1"><path
                       inkscape:connector-curvature="0"
                       id="path328"
                       style="fill:#80b9c3;fill-opacity:1;fill-rule:nonzero;stroke:none"
                       d="m 0,0 c -162.669,3.535 -278.875,-88.334 -283.794,-200.946 -4.334,-99.656 153.796,-192.2 255.483,-207.759 8.917,-3.961 15.03,-6.081 17.247,-5.283 19.129,2.404 52.334,5.193 84.887,16.249 119.527,23.944 214.277,95.065 216.281,187.271 C 292.553,-97.765 162.668,-3.535 0,0" /></g></g></g></g><g
               id="g330"
               style="fill:#80b9c3;fill-opacity:1"><g
                 id="g332"
                 style="fill:#80b9c3;fill-opacity:1" /><g
                 id="g334"
                 style="fill:#80b9c3;fill-opacity:1"><g
                   style="opacity:0.33332801;fill:#80b9c3;fill-opacity:1"
                   id="g336"
                   clip-path="url(#clipPath182)"><g
                     id="g338"
                     transform="translate(451.9473,735.4453)"
                     style="fill:#80b9c3;fill-opacity:1"><path
                       inkscape:connector-curvature="0"
                       id="path340"
                       style="fill:#80b9c3;fill-opacity:1;fill-rule:nonzero;stroke:none"
                       d="m 0,0 c -162.668,3.535 -280.051,-88.109 -284.806,-200.728 -4.192,-99.803 150.455,-191.96 254.729,-207.706 7.798,-4.185 12.833,-6.663 14.108,-6.254 17.854,2.243 52.203,4.591 86.001,16.272 121.611,22.732 218.047,94.776 220.073,187.947 C 292.553,-97.765 162.668,-3.534 0,0" /></g></g></g></g><g
               id="g342"
               style="fill:#80b9c3;fill-opacity:1"><g
                 id="g344"
                 style="fill:#80b9c3;fill-opacity:1" /><g
                 id="g346"
                 style="fill:#80b9c3;fill-opacity:1"><g
                   style="opacity:0.38095099;fill:#80b9c3;fill-opacity:1"
                   id="g348"
                   clip-path="url(#clipPath186)"><g
                     id="g350"
                     transform="translate(454.8438,735.6582)"
                     style="fill:#80b9c3;fill-opacity:1"><path
                       inkscape:connector-curvature="0"
                       id="path352"
                       style="fill:#80b9c3;fill-opacity:1;fill-rule:nonzero;stroke:none"
                       d="m 0,0 c -162.668,3.535 -281.227,-87.885 -285.817,-200.509 -4.051,-99.951 147.114,-191.723 253.974,-207.655 6.678,-4.409 10.635,-7.244 10.97,-7.226 16.578,2.083 52.073,3.992 87.113,16.295 123.695,21.523 221.819,94.491 223.865,188.626 C 292.554,-97.765 162.669,-3.535 0,0" /></g></g></g></g><g
               id="g354"
               style="fill:#80b9c3;fill-opacity:1"><g
                 id="g356"
                 style="fill:#80b9c3;fill-opacity:1" /><g
                 id="g358"
                 style="fill:#80b9c3;fill-opacity:1"><g
                   style="opacity:0.42857403;fill:#80b9c3;fill-opacity:1"
                   id="g360"
                   clip-path="url(#clipPath190)"><g
                     id="g362"
                     transform="translate(457.7412,735.8711)"
                     style="fill:#80b9c3;fill-opacity:1"><path
                       inkscape:connector-curvature="0"
                       id="path364"
                       style="fill:#80b9c3;fill-opacity:1;fill-rule:nonzero;stroke:none"
                       d="m 0,0 c -162.669,3.534 -282.404,-87.661 -286.829,-200.291 -3.91,-100.098 143.771,-191.484 253.22,-207.604 5.557,-4.631 8.436,-7.825 7.83,-8.196 15.303,1.923 51.944,3.392 88.227,16.319 125.778,20.31 225.589,94.202 227.656,189.303 C 292.554,-97.766 162.668,-3.535 0,0" /></g></g></g></g><g
               id="g366"
               style="fill:#80b9c3;fill-opacity:1"><g
                 id="g368"
                 style="fill:#80b9c3;fill-opacity:1" /><g
                 id="g370"
                 style="fill:#80b9c3;fill-opacity:1"><g
                   style="opacity:0.47619599;fill:#80b9c3;fill-opacity:1"
                   id="g372"
                   clip-path="url(#clipPath194)"><g
                     id="g374"
                     transform="translate(460.6387,736.0835)"
                     style="fill:#80b9c3;fill-opacity:1"><path
                       inkscape:connector-curvature="0"
                       id="path376"
                       style="fill:#80b9c3;fill-opacity:1;fill-rule:nonzero;stroke:none"
                       d="m 0,0 c -162.669,3.535 -283.581,-87.436 -287.842,-200.072 -3.768,-100.245 140.431,-191.247 252.466,-207.553 4.437,-4.855 6.239,-8.406 4.69,-9.167 14.029,1.762 51.816,2.792 89.342,16.341 127.861,19.101 229.36,93.916 231.448,189.982 C 292.553,-97.765 162.668,-3.535 0,0" /></g></g></g></g><g
               id="g378"
               style="fill:#80b9c3;fill-opacity:1"><g
                 id="g380"
                 style="fill:#80b9c3;fill-opacity:1" /><g
                 id="g382"
                 style="fill:#80b9c3;fill-opacity:1"><g
                   style="opacity:0.52380401;fill:#80b9c3;fill-opacity:1"
                   id="g384"
                   clip-path="url(#clipPath198)"><g
                     id="g386"
                     transform="translate(463.5352,736.2964)"
                     style="fill:#80b9c3;fill-opacity:1"><path
                       inkscape:connector-curvature="0"
                       id="path388"
                       style="fill:#80b9c3;fill-opacity:1;fill-rule:nonzero;stroke:none"
                       d="m 0,0 c -162.669,3.535 -284.757,-87.211 -288.853,-199.854 -3.627,-100.392 137.089,-191.009 251.71,-207.501 3.318,-5.079 4.042,-8.988 1.553,-10.138 12.753,1.602 51.686,2.192 90.454,16.365 129.946,17.888 233.131,93.628 235.24,190.659 C 292.553,-97.765 162.668,-3.535 0,0" /></g></g></g></g><g
               id="g390"
               style="fill:#80b9c3;fill-opacity:1"><g
                 id="g392"
                 style="fill:#80b9c3;fill-opacity:1" /><g
                 id="g394"
                 style="fill:#80b9c3;fill-opacity:1"><g
                   style="opacity:0.57142597;fill:#80b9c3;fill-opacity:1"
                   id="g396"
                   clip-path="url(#clipPath202)"><g
                     id="g398"
                     transform="translate(466.4326,736.5088)"
                     style="fill:#80b9c3;fill-opacity:1"><path
                       inkscape:connector-curvature="0"
                       id="path400"
                       style="fill:#80b9c3;fill-opacity:1;fill-rule:nonzero;stroke:none"
                       d="m 0,0 c -162.669,3.535 -285.934,-86.986 -289.865,-199.635 -3.487,-100.539 133.748,-190.77 250.956,-207.45 2.197,-5.303 1.844,-9.569 -1.587,-11.108 11.477,1.441 51.556,1.59 91.567,16.387 132.03,16.678 236.903,93.342 239.033,191.337 C 292.553,-97.765 162.668,-3.535 0,0" /></g></g></g></g><g
               id="g402"
               style="fill:#80b9c3;fill-opacity:1"><g
                 id="g404"
                 style="fill:#80b9c3;fill-opacity:1" /><g
                 id="g406"
                 style="fill:#80b9c3;fill-opacity:1"><g
                   style="opacity:0.61904901;fill:#80b9c3;fill-opacity:1"
                   id="g408"
                   clip-path="url(#clipPath206)"><g
                     id="g410"
                     transform="translate(469.3291,736.7217)"
                     style="fill:#80b9c3;fill-opacity:1"><path
                       inkscape:connector-curvature="0"
                       id="path412"
                       style="fill:#80b9c3;fill-opacity:1;fill-rule:nonzero;stroke:none"
                       d="m 0,0 c -162.668,3.535 -287.11,-86.762 -290.877,-199.417 -3.345,-100.686 130.407,-190.532 250.202,-207.398 1.077,-5.526 -0.354,-10.151 -4.725,-12.08 10.202,1.283 51.425,0.992 92.68,16.411 134.113,15.467 240.673,93.054 242.824,192.015 C 292.554,-97.765 162.668,-3.535 0,0" /></g></g></g></g><g
               id="g414"
               style="fill:#80b9c3;fill-opacity:1"><g
                 id="g416"
                 style="fill:#80b9c3;fill-opacity:1" /><g
                 id="g418"
                 style="fill:#80b9c3;fill-opacity:1"><g
                   style="opacity:0.66667199;fill:#80b9c3;fill-opacity:1"
                   id="g420"
                   clip-path="url(#clipPath210)"><g
                     id="g422"
                     transform="translate(472.2266,736.9341)"
                     style="fill:#80b9c3;fill-opacity:1"><path
                       inkscape:connector-curvature="0"
                       id="path424"
                       style="fill:#80b9c3;fill-opacity:1;fill-rule:nonzero;stroke:none"
                       d="m 0,0 c -162.669,3.535 -288.287,-86.537 -291.889,-199.198 -3.203,-100.833 127.065,-190.295 249.448,-207.346 -0.043,-5.75 -2.553,-10.734 -7.866,-13.051 8.927,1.122 51.297,0.39 93.794,16.432 136.197,14.258 244.445,92.769 246.617,192.694 C 292.553,-97.765 162.668,-3.535 0,0" /></g></g></g></g><g
               id="g426"
               style="fill:#80b9c3;fill-opacity:1"><g
                 id="g428"
                 style="fill:#80b9c3;fill-opacity:1" /><g
                 id="g430"
                 style="fill:#80b9c3;fill-opacity:1"><g
                   style="opacity:0.714279;fill:#80b9c3;fill-opacity:1"
                   id="g432"
                   clip-path="url(#clipPath214)"><g
                     id="g434"
                     transform="translate(475.123,737.1465)"
                     style="fill:#80b9c3;fill-opacity:1"><path
                       inkscape:connector-curvature="0"
                       id="path436"
                       style="fill:#80b9c3;fill-opacity:1;fill-rule:nonzero;stroke:none"
                       d="m 0,0 c -162.668,3.535 -289.463,-86.313 -292.9,-198.979 -3.062,-100.98 123.723,-190.056 248.693,-207.295 -1.163,-5.974 -4.75,-11.314 -11.005,-14.022 7.652,0.961 51.167,-0.21 94.908,16.456 138.281,13.046 248.215,92.482 250.408,193.371 C 292.554,-97.765 162.668,-3.534 0,0" /></g></g></g></g><g
               id="g438"
               style="fill:#80b9c3;fill-opacity:1"><g
                 id="g440"
                 style="fill:#80b9c3;fill-opacity:1" /><g
                 id="g442"
                 style="fill:#80b9c3;fill-opacity:1"><g
                   style="opacity:0.76190198;fill:#80b9c3;fill-opacity:1"
                   id="g444"
                   clip-path="url(#clipPath218)"><g
                     id="g446"
                     transform="translate(478.0195,737.3594)"
                     style="fill:#80b9c3;fill-opacity:1"><path
                       inkscape:connector-curvature="0"
                       id="path448"
                       style="fill:#80b9c3;fill-opacity:1;fill-rule:nonzero;stroke:none"
                       d="m 0,0 c -162.668,3.535 -290.64,-86.088 -293.912,-198.76 -2.92,-101.128 120.383,-189.819 247.938,-207.245 -2.282,-6.196 -6.947,-11.895 -14.142,-14.992 6.376,0.801 51.037,-0.81 96.02,16.479 140.365,11.835 251.987,92.194 254.201,194.05 C 292.555,-97.765 162.668,-3.534 0,0" /></g></g></g></g><g
               id="g450"
               style="fill:#80b9c3;fill-opacity:1"><g
                 id="g452"
                 style="fill:#80b9c3;fill-opacity:1" /><g
                 id="g454"
                 style="fill:#80b9c3;fill-opacity:1"><g
                   style="opacity:0.80952501;fill:#80b9c3;fill-opacity:1"
                   id="g456"
                   clip-path="url(#clipPath222)"><g
                     id="g458"
                     transform="translate(480.917,737.5723)"
                     style="fill:#80b9c3;fill-opacity:1"><path
                       inkscape:connector-curvature="0"
                       id="path460"
                       style="fill:#80b9c3;fill-opacity:1;fill-rule:nonzero;stroke:none"
                       d="m 0,0 c -162.668,3.535 -291.816,-85.863 -294.924,-198.542 -2.779,-101.275 117.041,-189.581 247.184,-207.193 -3.403,-6.42 -9.146,-12.477 -17.282,-15.963 5.101,0.64 50.908,-1.41 97.134,16.502 142.448,10.625 255.757,91.907 257.992,194.727 C 292.554,-97.766 162.668,-3.535 0,0" /></g></g></g></g><g
               id="g462"
               style="fill:#80b9c3;fill-opacity:1"><g
                 id="g464"
                 style="fill:#80b9c3;fill-opacity:1" /><g
                 id="g466"
                 style="fill:#80b9c3;fill-opacity:1"><g
                   style="opacity:0.85714698;fill:#80b9c3;fill-opacity:1"
                   id="g468"
                   clip-path="url(#clipPath226)"><g
                     id="g470"
                     transform="translate(483.8135,737.7852)"
                     style="fill:#80b9c3;fill-opacity:1"><path
                       inkscape:connector-curvature="0"
                       id="path472"
                       style="fill:#80b9c3;fill-opacity:1;fill-rule:nonzero;stroke:none"
                       d="m 0,0 c -162.668,3.534 -292.993,-85.639 -295.936,-198.324 -2.637,-101.422 113.701,-189.342 246.43,-207.142 -4.523,-6.643 -11.343,-13.057 -20.421,-16.933 3.826,0.48 50.779,-2.01 98.248,16.524 144.531,9.414 259.528,91.621 261.784,195.406 C 292.554,-97.766 162.668,-3.535 0,0" /></g></g></g></g><g
               id="g474"
               style="fill:#80b9c3;fill-opacity:1"><g
                 id="g476"
                 style="fill:#80b9c3;fill-opacity:1" /><g
                 id="g478"
                 style="fill:#80b9c3;fill-opacity:1"><g
                   style="opacity:0.904755;fill:#80b9c3;fill-opacity:1"
                   id="g480"
                   clip-path="url(#clipPath230)"><g
                     id="g482"
                     transform="translate(486.7109,737.9976)"
                     style="fill:#80b9c3;fill-opacity:1"><path
                       inkscape:connector-curvature="0"
                       id="path484"
                       style="fill:#80b9c3;fill-opacity:1;fill-rule:nonzero;stroke:none"
                       d="m 0,0 c -162.668,3.535 -294.169,-85.414 -296.948,-198.105 -2.496,-101.569 110.359,-189.104 245.675,-207.091 -5.643,-6.867 -13.541,-13.638 -23.56,-17.904 2.551,0.32 50.648,-2.61 99.361,16.548 146.616,8.203 263.299,91.333 265.576,196.083 C 292.554,-97.765 162.668,-3.535 0,0" /></g></g></g></g><g
               id="g486"
               style="fill:#80b9c3;fill-opacity:1"><g
                 id="g488"
                 style="fill:#80b9c3;fill-opacity:1" /><g
                 id="g490"
                 style="fill:#80b9c3;fill-opacity:1"><g
                   style="opacity:0.95237702;fill:#80b9c3;fill-opacity:1"
                   id="g492"
                   clip-path="url(#clipPath234)"><g
                     id="g494"
                     transform="translate(489.6074,738.21)"
                     style="fill:#80b9c3;fill-opacity:1"><path
                       inkscape:connector-curvature="0"
                       id="path496"
                       style="fill:#80b9c3;fill-opacity:1;fill-rule:nonzero;stroke:none"
                       d="m 0,0 c -162.668,3.535 -295.346,-85.189 -297.959,-197.886 -2.355,-101.716 107.017,-188.867 244.92,-207.039 -6.763,-7.091 -15.738,-14.221 -26.698,-18.876 1.275,0.16 50.518,-3.21 100.474,16.572 148.699,6.991 267.07,91.045 269.368,196.761 C 292.554,-97.765 162.668,-3.534 0,0" /></g></g></g></g><g
               id="g498"
               style="fill:#80b9c3;fill-opacity:1"><g
                 id="g500"
                 style="fill:#80b9c3;fill-opacity:1" /><g
                 id="g502"
                 style="fill:#80b9c3;fill-opacity:1"><g
                   id="g504"
                   clip-path="url(#clipPath238)"
                   style="fill:#80b9c3;fill-opacity:1"><g
                     id="g506"
                     transform="translate(782.6094,527.9541)"
                     style="fill:#80b9c3;fill-opacity:1"><path
                       inkscape:connector-curvature="0"
                       id="path508"
                       style="fill:#80b9c3;fill-opacity:1;fill-rule:nonzero;stroke:none"
                       d="m 0,0 c 2.449,112.704 -127.437,206.934 -290.104,210.469 -162.669,3.534 -296.523,-84.965 -298.972,-197.668 -2.214,-101.864 103.676,-188.628 244.166,-206.988 -7.883,-7.314 -17.937,-14.802 -29.838,-19.846 0,0 50.39,-3.811 101.588,16.594 C -122.378,-191.658 -2.319,-106.68 0,0" /></g></g></g></g></g></g></g><path
         d="m 782.6094,527.9541 c 2.449,112.704 -127.437,206.934 -290.104,210.469 -162.669,3.534 -273.973,-84.719 -276.422,-197.423 -2.214,-101.863 81.126,-188.873 221.616,-207.233 -7.883,-7.314 -17.937,-14.802 -29.838,-19.846 0,0 50.39,-3.811 101.588,16.594 150.782,5.781 270.841,90.759 273.16,197.439"
         style="fill:#80b9c3;fill-opacity:1;fill-rule:nonzero;stroke:none"
         id="path512"
         inkscape:connector-curvature="0" /><g
         transform="translate(632.9014,701.5425)"
         id="g514"
         style="fill-opacity:1;fill:#80b9c3"><path
           inkscape:connector-curvature="0"
           id="path516"
           style="fill:#80b9c3;fill-opacity:1;fill-rule:nonzero;stroke:none"
           d="m 0,0 c 81.653,-35.464 135.585,-98.78 134.041,-169.849 -2.2,-101.21 -104.963,-181.247 -248.015,-186.733 -35.975,-20.786 -82.365,-22.632 -85.747,-25.041 0,0 37.805,0.256 86.378,19.615 143.05,5.484 256.954,86.105 259.155,187.316 C 147.43,-100.261 88.199,-34.334 0,0" /></g></g><g
       id="g526"
       inkscape:export-filename="C:\wamp\www\bote\app\images\inform.png"
       inkscape:export-xdpi="45.700573"
       inkscape:export-ydpi="45.700573"><g
         id="g528"
         clip-path="url(#clipPath530)"><g
           id="g534"
           transform="translate(136.2935,301.5918)"><path
             d="m 0,0 c -0.353,3.411 -3.404,5.889 -6.814,5.538 l -29.92,-3.097 c -3.411,-0.353 -5.889,-3.405 -5.536,-6.814 l 1.982,-19.16 c 0.353,-3.41 3.404,-5.89 6.815,-5.535 l 29.919,3.094 c 3.41,0.353 5.889,3.404 5.536,6.815 L 0,0 Z"
             style="fill:#c1272d;fill-opacity:1;fill-rule:nonzero;stroke:none"
             id="path536"
             inkscape:connector-curvature="0" /></g><g
           id="g538"
           transform="translate(95.9282,301.3262)"><path
             d="M 0,0 C -0.044,0.425 -0.423,0.733 -0.848,0.689 -1.272,0.645 -1.581,0.266 -1.537,-0.16 l 2.784,-26.898 c 0.044,-0.423 0.423,-0.733 0.848,-0.689 0.425,0.044 0.733,0.424 0.689,0.849 L 0,0 Z"
             style="fill:#de4d31;fill-opacity:1;fill-rule:nonzero;stroke:none"
             id="path540"
             inkscape:connector-curvature="0" /></g><g
           id="g542"
           transform="translate(192.835,340.0957)"><path
             d="m 0,0 -78.766,-8.152 c -4.176,-0.432 -7.739,-3.131 -10.346,-5.731 l 12.028,1.244 1.113,-10.758 -17.128,-1.773 c 0.052,-0.771 -0.447,-1.03 -0.407,-1.421 l 5.232,-50.557 c 0.913,-8.822 9.278,-14.918 18.099,-14.005 l 78.765,8.15 c 8.82,0.913 15.487,8.565 14.575,17.386 l -5.232,50.558 C 17.02,-6.238 8.82,0.912 0,0"
             style="fill:#e6e6e6;fill-opacity:1;fill-rule:nonzero;stroke:none"
             id="path544"
             inkscape:connector-curvature="0" /></g><g
           id="g546"
           transform="translate(115.7505,327.457)"><path
             d="m 0,0 -12.028,-1.244 c -2.579,-3.374 -4.082,-7.413 -3.986,-11.287 L 1.114,-10.759 0,0 Z"
             style="fill:#ffffff;fill-opacity:1;fill-rule:nonzero;stroke:none"
             id="path548"
             inkscape:connector-curvature="0" /></g><g
           id="g550"
           transform="translate(185.6646,165.9121)"><path
             d="M 0,0 C -0.004,0.04 0.389,0.118 0.384,0.161 L -7.78,79.06 c -0.913,8.821 -9.51,14.915 -19.078,13.924 l -6.93,-0.716 c -9.569,-0.991 -17.175,-8.76 -16.262,-17.581 l 8.165,-78.9 c 0.912,-8.821 9.901,-14.412 19.47,-13.421 l 6.497,0.672 0.433,0.044 16.025,1.659 c 4.546,0.47 7.294,3.482 6.861,7.671 L 7.318,-6.789 C 6.927,-3.01 3.987,-0.17 0,0"
             style="fill:#a53826;fill-opacity:1;fill-rule:nonzero;stroke:none"
             id="path552"
             inkscape:connector-curvature="0" /></g><g
           id="g554"
           transform="translate(384.4556,317.917)"><path
             d="m 0,0 c 1.666,-16.11 -10.04,-30.521 -26.15,-32.187 -16.108,-1.667 -30.517,10.041 -32.185,26.15 -1.667,16.108 10.04,30.518 26.149,32.185 C -16.077,27.814 -1.667,16.108 0,0"
             style="fill:#a53826;fill-opacity:1;fill-rule:nonzero;stroke:none"
             id="path556"
             inkscape:connector-curvature="0" /></g><g
           id="g558"
           transform="translate(378.4487,190.916)"><path
             d="m 0,0 c 0.625,-6.036 -3.762,-11.436 -9.799,-12.061 l -0.428,-0.043 c -6.037,-0.625 -11.436,3.762 -12.062,9.797 L -48.42,250.205 c -0.625,6.036 3.763,11.436 9.799,12.06 l 0.428,0.045 c 6.037,0.624 11.436,-3.763 12.061,-9.799 L 0,0 Z"
             style="fill:#de4d31;fill-opacity:1;fill-rule:nonzero;stroke:none"
             id="path560"
             inkscape:connector-curvature="0" /></g><g
           id="g562"
           transform="translate(196.2026,255.6064)"><path
             d="m 0,0 c 0.913,-8.822 -5.497,-16.712 -14.318,-17.624 l -39.532,-4.092 c -8.82,-0.913 -16.712,5.498 -17.624,14.32 l -8.704,84.106 c -0.913,8.821 5.497,16.711 14.318,17.624 l 39.533,4.091 c 8.82,0.913 16.711,-5.498 17.623,-14.32 L 0,0 Z"
             style="fill:#de4d31;fill-opacity:1;fill-rule:nonzero;stroke:none"
             id="path564"
             inkscape:connector-curvature="0" /></g><g
           id="g566"
           transform="translate(330.1143,440.2974)"><path
             d="m 0,0 c 0,0 -16.409,-89.135 -140.913,-102.02 l 8.485,-81.986 c 0,0 152.125,-6.321 158.515,-68.076 L 0,0 Z"
             style="fill:#e6e6e6;fill-opacity:1;fill-rule:nonzero;stroke:none"
             id="path568"
             inkscape:connector-curvature="0" /></g><g
           id="g570"
           transform="translate(189.5659,334.751)"><path
             d="M 0,0 1.095,-10.576 C 125.599,2.31 142.008,91.444 142.008,91.444 l -1.095,10.577 C 140.913,102.021 124.504,12.886 0,0"
             style="fill:#ffffff;fill-opacity:1;fill-rule:nonzero;stroke:none"
             id="path572"
             inkscape:connector-curvature="0" /></g><g
           id="g574"><g
             id="g576" /><g
             id="g582"><g
               clip-path="url(#clipPath578)"
               id="g584"
               style="opacity:0.10000598"><g
                 transform="translate(94.8154,289.5596)"
                 id="g586"><path
                   d="m 0,0 1.125,-10.857 c 0.353,-3.41 3.757,-5.727 7.168,-5.374 l 0.374,0.039 0.987,-9.537 c 0.913,-8.823 9.29,-15.033 18.111,-14.12 l 1.972,0.204 0.04,-0.394 c 0.689,-6.66 5.891,-11.89 11.519,-13.73 l 7.668,-74.091 c 0.912,-8.822 9.901,-14.412 19.47,-13.421 l 6.497,0.672 0.433,0.044 16.025,1.659 c 4.546,0.469 7.294,3.481 6.861,7.671 l -0.083,0.798 c -0.391,3.78 -3.331,6.62 -7.318,6.79 -0.004,0.04 0.389,0.118 0.384,0.161 l -7.565,73.11 4.083,0.423 c 8.819,0.911 15.951,8.649 15.038,17.47 l -0.016,0.156 0.006,-0.058 c 0,0 152.125,-6.321 158.516,-68.075 l 0.055,-0.532 c 0.624,-6.037 5.854,-10.441 11.89,-9.818 6.036,0.627 10.254,6.007 9.629,12.044 L 272.69,-0.402 c 11.122,5.112 18.193,16.888 16.868,29.698 -0.022,0.205 -0.091,0.661 -0.097,0.66 L 0,0 Z"
                   style="fill:#000000;fill-opacity:1;fill-rule:nonzero;stroke:none"
                   id="path588"
                   inkscape:connector-curvature="0" /></g></g></g></g><g
           id="g590"
           transform="translate(149.4126,210.9932)"><path
             d="m 0,0 c -1.494,3.38 -2.619,6.159 -0.113,7.267 l 34.351,15.18 c 2.506,1.105 5.749,-0.739 7.242,-4.121 1.495,-3.382 0.674,-7.021 -1.831,-8.128 L 5.298,-4.98 C 2.792,-6.089 1.495,-3.384 0,0"
             style="fill:#ffcca6;fill-opacity:1;fill-rule:nonzero;stroke:none"
             id="path592"
             inkscape:connector-curvature="0" /></g><g
           id="g594"
           transform="translate(149.2998,218.2598)"><path
             d="m 0,0 34.351,15.181 c 2.505,1.104 4.38,-0.618 4.38,-0.618 C 38.731,14.563 -2.506,-1.107 0,0"
             style="fill:#ddb192;fill-opacity:1;fill-rule:nonzero;stroke:none"
             id="path596"
             inkscape:connector-curvature="0" /></g><g
           id="g598"
           transform="translate(152.5952,207.2969)"><path
             d="M 0,0 C 0.013,-0.029 0.432,0.115 0.767,0.265 4.535,1.928 7.471,3.226 5.558,7.556 3.644,11.887 0.766,10.614 -3.002,8.949 -3.335,8.803 -3.785,8.563 -3.772,8.535 L 0,0 Z"
             style="fill:#f3ebd4;fill-opacity:1;fill-rule:nonzero;stroke:none"
             id="path600"
             inkscape:connector-curvature="0" /></g><g
           id="g602"
           transform="translate(154.168,198.2588)"><path
             d="m 0,0 c -1.494,3.381 -2.618,6.161 -0.112,7.269 l 34.35,15.177 c 2.507,1.107 5.748,-0.737 7.242,-4.12 1.496,-3.382 0.675,-7.02 -1.83,-8.128 L 5.298,-4.979 C 2.793,-6.086 1.495,-3.382 0,0"
             style="fill:#ffcca6;fill-opacity:1;fill-rule:nonzero;stroke:none"
             id="path604"
             inkscape:connector-curvature="0" /></g><g
           id="g606"
           transform="translate(154.0557,205.5273)"><path
             d="m 0,0 34.351,15.178 c 2.506,1.106 4.38,-0.615 4.38,-0.615 C 38.731,14.563 -2.505,-1.107 0,0"
             style="fill:#ddb192;fill-opacity:1;fill-rule:nonzero;stroke:none"
             id="path608"
             inkscape:connector-curvature="0" /></g><g
           id="g610"
           transform="translate(157.3511,194.5625)"><path
             d="M 0,0 C 0.012,-0.026 0.432,0.115 0.767,0.265 4.534,1.93 7.471,3.226 5.557,7.559 3.645,11.89 0.766,10.617 -3.002,8.95 -3.336,8.805 -3.784,8.565 -3.771,8.537 L 0,0 Z"
             style="fill:#f3ebd4;fill-opacity:1;fill-rule:nonzero;stroke:none"
             id="path612"
             inkscape:connector-curvature="0" /></g><g
           id="g614"
           transform="translate(158.1733,185.2285)"><path
             d="m 0,0 c -1.494,3.384 -2.618,6.163 -0.112,7.27 l 34.351,15.178 c 2.506,1.109 5.747,-0.734 7.242,-4.119 1.495,-3.381 0.674,-7.019 -1.832,-8.129 L 5.298,-4.975 C 2.793,-6.082 1.496,-3.381 0,0"
             style="fill:#ffcca6;fill-opacity:1;fill-rule:nonzero;stroke:none"
             id="path616"
             inkscape:connector-curvature="0" /></g><g
           id="g618"
           transform="translate(158.061,192.498)"><path
             d="m 0,0 34.352,15.179 c 2.505,1.108 4.379,-0.616 4.379,-0.616 C 38.731,14.563 -2.505,-1.106 0,0"
             style="fill:#ddb192;fill-opacity:1;fill-rule:nonzero;stroke:none"
             id="path620"
             inkscape:connector-curvature="0" /></g><g
           id="g622"
           transform="translate(161.356,181.5342)"><path
             d="M 0,0 C 0.013,-0.027 0.433,0.116 0.767,0.264 4.535,1.931 7.471,3.227 5.557,7.559 3.645,11.888 0.766,10.617 -3.002,8.952 -3.335,8.805 -3.784,8.566 -3.772,8.536 L 0,0 Z"
             style="fill:#f3ebd4;fill-opacity:1;fill-rule:nonzero;stroke:none"
             id="path624"
             inkscape:connector-curvature="0" /></g><g
           id="g626"
           transform="translate(167.7158,174.7529)"><path
             d="m 0,0 c -1.495,3.381 -2.62,6.159 -0.113,7.269 l 27.157,11.502 c 2.505,1.105 5.747,-0.739 7.242,-4.122 C 35.781,11.27 34.961,7.63 32.454,6.523 L 5.298,-4.978 C 2.792,-6.086 1.495,-3.383 0,0"
             style="fill:#ffcca6;fill-opacity:1;fill-rule:nonzero;stroke:none"
             id="path628"
             inkscape:connector-curvature="0" /></g><g
           id="g630"
           transform="translate(167.6025,182.0215)"><path
             d="m 0,0 27.157,11.502 c 2.505,1.105 4.38,-0.616 4.38,-0.616 C 31.537,10.886 -2.506,-1.109 0,0"
             style="fill:#ddb192;fill-opacity:1;fill-rule:nonzero;stroke:none"
             id="path632"
             inkscape:connector-curvature="0" /></g><g
           id="g634"
           transform="translate(170.897,171.0576)"><path
             d="M 0,0 C 0.013,-0.029 0.434,0.114 0.767,0.264 4.536,1.93 7.472,3.226 5.558,7.556 3.645,11.887 0.768,10.615 -3.001,8.95 -3.335,8.803 -3.784,8.565 -3.771,8.535 L 0,0 Z"
             style="fill:#f3ebd4;fill-opacity:1;fill-rule:nonzero;stroke:none"
             id="path636"
             inkscape:connector-curvature="0" /></g><g
           id="g638"
           transform="translate(105.0977,146.3379)"><path
             d="m 0,0 -105.098,-53.756 0,108.815 94.519,1.914 L 0,0 Z"
             style="fill:#000000;fill-opacity:1;fill-rule:nonzero;stroke:none"
             id="path640"
             inkscape:connector-curvature="0" /></g><g
           id="g642"
           transform="translate(95.0337,200.5371)"><path
             d="M 0,0 7.091,0.886 19.258,-48.617 9.629,-51.857 0,0 Z"
             style="fill:#ffffff;fill-opacity:1;fill-rule:nonzero;stroke:none"
             id="path644"
             inkscape:connector-curvature="0" /></g><g
           id="g646"
           transform="translate(102.4185,199.7344)"><path
             d="M 0,0 10.74,3.933 28.855,-11.065 28.929,-39.383 11.068,-44.571 0,0 Z"
             style="fill:#ffcea4;fill-opacity:1;fill-rule:nonzero;stroke:none"
             id="path648"
             inkscape:connector-curvature="0" /></g><g
           id="g650"
           transform="translate(111.8213,203.4326)"><path
             d="M 0,0 C -2.995,-8.933 -6.159,-19.954 -1.664,-27.456 8.822,-44.966 28.718,-45.271 28.718,-45.271 22.999,-23.258 20.526,-1.222 19.659,7.051 L 0,0 Z"
             style="fill:#f7be97;fill-opacity:1;fill-rule:nonzero;stroke:none"
             id="path652"
             inkscape:connector-curvature="0" /></g><g
           id="g654"
           transform="translate(144.4683,156.9424)"><path
             d="m 0,0 c 0,0 -20.912,-0.452 -31.219,20.117 -10.309,20.57 12.113,58.171 15.341,59.045 3.23,0.876 35.433,10.946 35.433,10.946 0,0 6.444,-10.678 -3.922,-15.918 C 5.268,68.952 -6.662,62.858 -6.662,62.858 -6.662,62.858 -4.25,38.556 0,0"
             style="fill:#ffcca8;fill-opacity:1;fill-rule:nonzero;stroke:none"
             id="path656"
             inkscape:connector-curvature="0" /></g><g
           id="g658"
           transform="translate(152.7466,243.5332)"><path
             d="m 0,0 c 0,0 0.557,-1.985 3.258,-2.045 l 7.548,1.825 c 0,0 0.111,2.34 -1.083,3.253 L 0,0 Z"
             style="fill:#ffdcc5;fill-opacity:1;fill-rule:nonzero;stroke:none"
             id="path660"
             inkscape:connector-curvature="0" /></g><g
           id="g662"
           transform="translate(0,171.0537)"><path
             d="M 0,0 96.537,21.389 95.263,28.249 0,21.389 0,0 Z"
             style="fill:#333333;fill-opacity:1;fill-rule:nonzero;stroke:none"
             id="path664"
             inkscape:connector-curvature="0" /></g><g
           id="g666"
           transform="translate(95.2627,199.3027)"><path
             d="M 0,0 7.156,0.942 8.172,-3.663 1.014,-5.459 0,0 Z"
             style="fill:#f2f2f2;fill-opacity:1;fill-rule:nonzero;stroke:none"
             id="path668"
             inkscape:connector-curvature="0" /></g></g></g></g></svg>