<?xml version="1.0" encoding="UTF-8" standalone="no"?>
<!-- Created with Inkscape (http://www.inkscape.org/) -->

<svg
   xmlns:dc="http://purl.org/dc/elements/1.1/"
   xmlns:cc="http://creativecommons.org/ns#"
   xmlns:rdf="http://www.w3.org/1999/02/22-rdf-syntax-ns#"
   xmlns:svg="http://www.w3.org/2000/svg"
   xmlns="http://www.w3.org/2000/svg"
   xmlns:sodipodi="http://sodipodi.sourceforge.net/DTD/sodipodi-0.dtd"
   xmlns:inkscape="http://www.inkscape.org/namespaces/inkscape"
   id="svg2"
   version="1.1"
   inkscape:version="0.91pre3 r13670"
   xml:space="preserve"
   width="1000"
   height="1000"
   viewBox="0 0 1000 1000"
   sodipodi:docname="advert.svg"><metadata
     id="metadata8"><rdf:RDF><cc:Work
         rdf:about=""><dc:format>image/svg+xml</dc:format><dc:type
           rdf:resource="http://purl.org/dc/dcmitype/StillImage" /><dc:title /></cc:Work></rdf:RDF></metadata><defs
     id="defs6"><clipPath
       clipPathUnits="userSpaceOnUse"
       id="clipPath20"><path
         d="M 0,800 800,800 800,0 0,0 0,800 Z"
         id="path22"
         inkscape:connector-curvature="0" /></clipPath><clipPath
       clipPathUnits="userSpaceOnUse"
       id="clipPath28"><path
         d="M 0,800 800,800 800,0 0,0 0,800 Z"
         id="path30"
         inkscape:connector-curvature="0" /></clipPath><clipPath
       clipPathUnits="userSpaceOnUse"
       id="clipPath32"><path
         d="M 800,0 0,0 0,800 800,800 800,0 Z"
         id="path34"
         inkscape:connector-curvature="0" /></clipPath><radialGradient
       fx="0"
       fy="0"
       cx="0"
       cy="0"
       r="1"
       gradientUnits="userSpaceOnUse"
       gradientTransform="matrix(400,0,0,-400,400,400)"
       spreadMethod="pad"
       id="radialGradient40"><stop
         style="stop-opacity:1;stop-color:#ffffff"
         offset="0"
         id="stop42" /><stop
         style="stop-opacity:1;stop-color:#ffffff"
         offset="0"
         id="stop44" /><stop
         style="stop-opacity:1;stop-color:#ffffff"
         offset="0"
         id="stop46" /><stop
         style="stop-opacity:1;stop-color:#ffffff"
         offset="0"
         id="stop48" /><stop
         style="stop-opacity:1;stop-color:#ffffff"
         offset="0"
         id="stop50" /><stop
         style="stop-opacity:1;stop-color:#ffffff"
         offset="0.32286903"
         id="stop52" /><stop
         style="stop-opacity:1;stop-color:#ffffff"
         offset="0.994254"
         id="stop54" /><stop
         style="stop-opacity:1;stop-color:#ffffff"
         offset="1"
         id="stop56" /></radialGradient><mask
       maskUnits="userSpaceOnUse"
       x="0"
       y="0"
       width="1"
       height="1"
       id="mask58"><g
         id="g60"><g
           id="g62"><g
             id="g64"><g
               id="g66"><path
                 d="m -32768,32767 65535,0 0,-65535 -65535,0 0,65535 z"
                 style="fill:url(#radialGradient40);stroke:none"
                 id="path68"
                 inkscape:connector-curvature="0" /></g></g></g></g></mask><radialGradient
       fx="0"
       fy="0"
       cx="0"
       cy="0"
       r="1"
       gradientUnits="userSpaceOnUse"
       gradientTransform="matrix(400,0,0,-400,400,400)"
       spreadMethod="pad"
       id="radialGradient70"><stop
         style="stop-opacity:1;stop-color:#f9dca1"
         offset="0"
         id="stop72" /><stop
         style="stop-opacity:1;stop-color:#f9dca1"
         offset="0"
         id="stop74" /><stop
         style="stop-opacity:1;stop-color:#f9dca1"
         offset="0"
         id="stop76" /><stop
         style="stop-opacity:1;stop-color:#f9dca1"
         offset="0"
         id="stop78" /><stop
         style="stop-opacity:1;stop-color:#f9dca1"
         offset="0"
         id="stop80" /><stop
         style="stop-opacity:1;stop-color:#f9dca1"
         offset="0.32286903"
         id="stop82" /><stop
         style="stop-opacity:1;stop-color:#653441"
         offset="0.994254"
         id="stop84" /><stop
         style="stop-opacity:1;stop-color:#653441"
         offset="1"
         id="stop86" /></radialGradient><clipPath
       clipPathUnits="userSpaceOnUse"
       id="clipPath118"><path
         d="M 0,278.867 0,0 800,0 800,315.875 0,278.867 Z"
         id="path120"
         inkscape:connector-curvature="0" /></clipPath><clipPath
       clipPathUnits="userSpaceOnUse"
       id="clipPath126"><path
         d="m -32.2749,279.662 843.8779,0 0,-75.324 -843.8779,0 0,75.324 z"
         id="path128"
         inkscape:connector-curvature="0" /></clipPath><clipPath
       clipPathUnits="userSpaceOnUse"
       id="clipPath142"><path
         d="m -32.2749,204.354 843.8779,0 0,-75.325 -843.8779,0 0,75.325 z"
         id="path144"
         inkscape:connector-curvature="0" /></clipPath><clipPath
       clipPathUnits="userSpaceOnUse"
       id="clipPath158"><path
         d="m -32.2749,129.045 843.8779,0 0,-75.3243 -843.8779,0 0,75.3243 z"
         id="path160"
         inkscape:connector-curvature="0" /></clipPath><clipPath
       clipPathUnits="userSpaceOnUse"
       id="clipPath174"><path
         d="m 443.546,715.528 440.458,0 0,-742.6217 -440.458,0 0,742.6217 z"
         id="path176"
         inkscape:connector-curvature="0" /></clipPath><clipPath
       clipPathUnits="userSpaceOnUse"
       id="clipPath190"><path
         d="m 352.187,692.071 440.459,0 0,-742.6218 -440.459,0 0,742.6218 z"
         id="path192"
         inkscape:connector-curvature="0" /></clipPath><clipPath
       clipPathUnits="userSpaceOnUse"
       id="clipPath206"><path
         d="m 260.829,668.614 440.461,0 0,-742.6238 -440.461,0 0,742.6238 z"
         id="path208"
         inkscape:connector-curvature="0" /></clipPath><clipPath
       clipPathUnits="userSpaceOnUse"
       id="clipPath222"><path
         d="m 169.471,645.157 440.461,0 0,-742.6238 -440.461,0 0,742.6238 z"
         id="path224"
         inkscape:connector-curvature="0" /></clipPath><clipPath
       clipPathUnits="userSpaceOnUse"
       id="clipPath238"><path
         d="m 78.1123,621.701 440.4607,0 0,-742.623 -440.4607,0 0,742.623 z"
         id="path240"
         inkscape:connector-curvature="0" /></clipPath><clipPath
       clipPathUnits="userSpaceOnUse"
       id="clipPath254"><path
         d="m -13.2446,598.243 440.4606,0 0,-742.622 -440.4606,0 0,742.622 z"
         id="path256"
         inkscape:connector-curvature="0" /></clipPath><clipPath
       clipPathUnits="userSpaceOnUse"
       id="clipPath270"><path
         d="m -104.603,574.787 440.46,0 0,-742.621 -440.46,0 0,742.621 z"
         id="path272"
         inkscape:connector-curvature="0" /></clipPath><clipPath
       clipPathUnits="userSpaceOnUse"
       id="clipPath286"><path
         d="m -195.961,551.33 440.46,0 0,-742.623 -440.46,0 0,742.623 z"
         id="path288"
         inkscape:connector-curvature="0" /></clipPath><clipPath
       clipPathUnits="userSpaceOnUse"
       id="clipPath302"><path
         d="m -32.2749,53.7363 843.8779,0 0,-75.3261 -843.8779,0 0,75.3261 z"
         id="path304"
         inkscape:connector-curvature="0" /></clipPath><clipPath
       clipPathUnits="userSpaceOnUse"
       id="clipPath318"><path
         d="M 0,800 800,800 800,0 0,0 0,800 Z"
         id="path320"
         inkscape:connector-curvature="0" /></clipPath><clipPath
       clipPathUnits="userSpaceOnUse"
       id="clipPath326"><path
         d="m 213.084,205.171 340.644,0 0,-64.843 -340.644,0 0,64.843 z"
         id="path328"
         inkscape:connector-curvature="0" /></clipPath><clipPath
       clipPathUnits="userSpaceOnUse"
       id="clipPath342"><path
         d="M 0,800 800,800 800,0 0,0 0,800 Z"
         id="path344"
         inkscape:connector-curvature="0" /></clipPath></defs><sodipodi:namedview
     pagecolor="#ffffff"
     bordercolor="#666666"
     borderopacity="1"
     objecttolerance="10"
     gridtolerance="10"
     guidetolerance="10"
     inkscape:pageopacity="0"
     inkscape:pageshadow="2"
     inkscape:window-width="1920"
     inkscape:window-height="1137"
     id="namedview4"
     showgrid="false"
     inkscape:zoom="0.6675088"
     inkscape:cx="444.42435"
     inkscape:cy="508.84878"
     inkscape:window-x="-8"
     inkscape:window-y="-8"
     inkscape:window-maximized="1"
     inkscape:current-layer="g10" /><g
     id="g10"
     inkscape:groupmode="layer"
     inkscape:label="Mix Capitalism 1"
     transform="matrix(1.25,0,0,-1.25,0,1000)"
     style="display:inline"><g
       id="g314"
       inkscape:export-filename="C:\wamp\www\bote\app\images\advert.png"
       inkscape:export-xdpi="90"
       inkscape:export-ydpi="90"><g
         id="g316"
         clip-path="url(#clipPath318)"><g
           id="g322"><g
             id="g324" /><g
             id="g330"><g
               clip-path="url(#clipPath326)"
               id="g332"
               style="opacity:0.5"><g
                 transform="translate(432.2676,202.3457)"
                 id="g334"><path
                   d="m 0,0 c -34.532,-4.277 -119.898,-1.33 -161.132,0 -41.235,1.33 -78.478,-10.177 -45.224,-27.701 33.252,-17.525 80.623,-38.806 118.124,-33.486 37.501,5.322 60.082,18.316 83.107,16.61 23.027,-1.708 91.408,11.323 118.67,19.305 C 140.808,-17.291 96.362,11.932 0,0"
                   style="fill:#a5a3a4;fill-opacity:1;fill-rule:nonzero;stroke:none"
                   id="path336"
                   inkscape:connector-curvature="0" /></g></g></g></g></g></g><g
       id="g474"
       transform="translate(272.4355,416.7656)"
       inkscape:export-filename="C:\wamp\www\bote\app\images\advert.png"
       inkscape:export-xdpi="90"
       inkscape:export-ydpi="90"><path
         d="m 0,0 -7.02,0.73 c 1.376,13.217 30.001,21.042 95.717,26.167 l 2.752,0.216 c 10.463,0.831 29.84,1.772 46.631,1.961 33.591,0.385 36.22,-2.331 37.639,-3.786 0.953,-0.978 1.403,-2.233 1.266,-3.532 l -7.019,0.738 c -0.133,-1.265 0.603,-2.144 0.96,-2.351 -5.102,2.958 -52.104,2.063 -78.919,-0.065 L 89.246,19.861 C 77.245,18.926 54.905,17.184 35.113,13.682 2.446,7.901 0.132,1.271 0,0"
         style="fill:#ffffff;fill-opacity:1;fill-rule:nonzero;stroke:none"
         id="path476"
         inkscape:connector-curvature="0" /></g><g
       id="g478"
       transform="translate(538.0635,199.6904)"
       inkscape:export-filename="C:\wamp\www\bote\app\images\advert.png"
       inkscape:export-xdpi="90"
       inkscape:export-ydpi="90"><path
         d="m 0,0 -2.153,223.874 c -0.048,5.187 -4.142,9.354 -9.33,9.304 l -82.834,0.77 c -2.999,-0.029 -5.617,-1.465 -7.287,-3.668 0.78,0.22 1.599,0.352 2.454,0.361 l 82.835,-0.77 c 5.187,0.049 9.28,-4.117 9.331,-9.305 L -4.832,-3.306 c 0.052,-5.187 -4.014,-9.432 -9.199,-9.482 l -3.217,0.637 2.575,-0.657 C -2.037,-13.279 0.544,-7.244 0,0"
         style="fill:#ffffff;fill-opacity:1;fill-rule:nonzero;stroke:none"
         id="path480"
         inkscape:connector-curvature="0" /></g><g
       id="g482"
       transform="translate(533.2314,196.3848)"
       inkscape:export-filename="C:\wamp\www\bote\app\images\advert.png"
       inkscape:export-xdpi="90"
       inkscape:export-ydpi="90"><path
         d="m 0,0 -2.152,223.872 c -0.051,5.188 -4.144,9.354 -9.331,9.305 l -82.835,0.769 c -0.855,-0.008 -1.674,-0.14 -2.453,-0.361 -3.958,-1.122 -6.792,-4.788 -6.75,-9.123 l 2.001,-208.216 c 0.052,-5.186 4.144,-9.354 9.332,-9.306 l 79.772,-15.786 3.217,-0.636 C -4.014,-9.433 0.052,-5.187 0,0"
         style="fill:#653441;fill-opacity:1;fill-rule:nonzero;stroke:none"
         id="path484"
         inkscape:connector-curvature="0" /></g><g
       id="g486"
       transform="translate(482.0527,319.4766)"
       inkscape:export-filename="C:\wamp\www\bote\app\images\advert.png"
       inkscape:export-xdpi="90"
       inkscape:export-ydpi="90"><path
         d="m 0,0 -46.248,-29.198 c 15.561,1.136 28.902,3.081 37.747,6.193 0,0 4.412,8.436 8.501,23.005"
         style="fill:#cf555d;fill-opacity:1;fill-rule:nonzero;stroke:none"
         id="path488"
         inkscape:connector-curvature="0" /></g><g
       id="g490"
       transform="translate(429.4502,286.2666)"
       inkscape:export-filename="C:\wamp\www\bote\app\images\advert.png"
       inkscape:export-xdpi="90"
       inkscape:export-ydpi="90"><path
         d="M 0,0 6.354,4.012 C 5.461,3.947 4.566,3.883 3.659,3.823 L 0,0 Z"
         style="fill:#9b4046;fill-opacity:1;fill-rule:nonzero;stroke:none"
         id="path492"
         inkscape:connector-curvature="0" /></g><g
       id="g494"
       transform="translate(327.7007,169.2422)"
       inkscape:export-filename="C:\wamp\www\bote\app\images\advert.png"
       inkscape:export-xdpi="90"
       inkscape:export-ydpi="90"><path
         d="m 0,0 c 0,0 -0.004,0.038 -0.008,0.079 -4.296,-1.119 -11.883,-3.544 -11.693,-6.67 0.265,-4.354 15.091,-2.722 23.563,-2.449 8.472,0.272 1.059,9.798 1.059,9.798 l -0.554,0 L 12.35,0.588 0,0 Z"
         style="fill:#57493c;fill-opacity:1;fill-rule:nonzero;stroke:none"
         id="path496"
         inkscape:connector-curvature="0" /></g><g
       id="g498"
       transform="translate(438.0098,201.4512)"
       inkscape:export-filename="C:\wamp\www\bote\app\images\advert.png"
       inkscape:export-xdpi="90"
       inkscape:export-ydpi="90"><path
         d="m 0,0 c 0,0 -0.075,0.062 -0.194,0.161 -0.96,-1.693 -3.382,-5.989 -5.307,-9.627 -2.457,-4.64 0.818,-6.552 4.368,-4.367 3.548,2.184 15.287,10.919 14.741,14.742 C 13.174,3.959 8.92,4.747 7.216,4.941 7.267,4.591 0,0 0,0"
         style="fill:#57493c;fill-opacity:1;fill-rule:nonzero;stroke:none"
         id="path500"
         inkscape:connector-curvature="0" /></g><g
       id="g502"
       transform="translate(387.2876,248.8975)"
       inkscape:export-filename="C:\wamp\www\bote\app\images\advert.png"
       inkscape:export-xdpi="90"
       inkscape:export-ydpi="90"><path
         d="m 0,0 c 9.104,-11.104 17.87,-21.343 20.967,-23.556 6.964,-4.973 27.425,-21.954 29.561,-23.729 0.119,-0.099 0.194,-0.161 0.194,-0.161 0,0 7.267,4.591 7.216,4.941 0,0.003 0.008,0.011 0.007,0.013 -5.751,9.535 -30.059,29.011 -30.059,29.011 L 17.85,8.455 C 14.651,8.061 11.323,7.762 7.85,7.58 L 0,0 Z"
         style="fill:#dfa721;fill-opacity:1;fill-rule:nonzero;stroke:none"
         id="path504"
         inkscape:connector-curvature="0" /></g><g
       id="g506"
       transform="translate(287.2183,293.2373)"
       inkscape:export-filename="C:\wamp\www\bote\app\images\advert.png"
       inkscape:export-xdpi="90"
       inkscape:export-ydpi="90"><path
         d="m 0,0 c 0.156,-0.238 0.314,-0.478 0.477,-0.715 16.937,-24.854 75.292,-34.868 75.292,-34.868 0,0 -26.073,-29.406 -32.542,-41.168 -6.312,-11.477 -2.921,-45.517 -2.753,-47.165 0.005,-0.041 0.008,-0.079 0.008,-0.079 l 12.351,0.588 0.017,0.17 3.708,36.881 43.511,42.016 7.85,7.58 c 3.474,0.182 6.801,0.481 10,0.875 52.053,6.411 68.414,39.119 68.414,39.119 L 145.891,-3.147 C 90.999,-6.771 10.832,-0.838 0,0"
         style="fill:#f4c121;fill-opacity:1;fill-rule:nonzero;stroke:none"
         id="path508"
         inkscape:connector-curvature="0" /></g><g
       id="g510"
       transform="translate(469.6309,450.1636)"
       inkscape:export-filename="C:\wamp\www\bote\app\images\advert.png"
       inkscape:export-xdpi="90"
       inkscape:export-ydpi="90"><path
         d="m 0,0 -176.482,-7.725 c 0,0 -49.679,-80.099 -7.172,-149.104 0,0 0.436,-0.035 1.241,-0.097 10.832,-0.838 90.999,-6.771 145.892,-3.148 l 9.375,9.414 44.613,44.797 c 0.885,6.651 1.614,14.276 1.745,21.958 C 19.624,-59.758 14.994,-18.036 0,0"
         style="fill:#cf555d;fill-opacity:1;fill-rule:nonzero;stroke:none"
         id="path512"
         inkscape:connector-curvature="0" /></g><g
       id="g514"
       transform="translate(365.104,530.1084)"
       inkscape:export-filename="C:\wamp\www\bote\app\images\advert.png"
       inkscape:export-xdpi="90"
       inkscape:export-ydpi="90"><path
         d="m 0,0 c -0.222,-2.916 -0.991,-5.55 -2.168,-7.887 -0.529,9.562 -8.079,19.945 -18.307,19.945 -9.738,0 -18.744,-4.449 -21.967,-13.507 -0.251,1.551 -0.333,3.116 -0.215,4.662 0.935,12.261 11.278,19.722 22.935,19.722 C -8.07,22.935 0.836,10.957 0,0 M 98.645,-9.372 C 72.769,-10.939 76.69,-44.658 76.69,-44.658 l -17.252,1.569 c 0,0 16.467,64.299 -10.194,91.745 C 31.47,66.953 -30.56,58.419 -74.589,65.565 -89.796,44.153 -87.981,7.524 -87.981,7.524 c 0,0 -54.498,-52.967 -48.617,-71.786 4.757,-15.222 41.062,-13.259 54.768,-11.952 2.858,0.273 4.728,0.516 5.129,0.569 1.095,0.24 32.048,6.792 43.867,-16.255 3.326,-6.486 5.084,-11.08 5.741,-14.28 75.255,-1.577 138.285,13.688 138.285,13.688 0,0 2.723,9.132 5.489,23.409 0.022,0.176 7.804,61.277 -18.036,59.711"
         style="fill:#ffe2d9;fill-opacity:1;fill-rule:nonzero;stroke:none"
         id="path516"
         inkscape:connector-curvature="0" /></g><g
       id="g518"
       transform="translate(345.3818,553.0435)"
       inkscape:export-filename="C:\wamp\www\bote\app\images\advert.png"
       inkscape:export-xdpi="90"
       inkscape:export-ydpi="90"><path
         d="m 0,0 c -11.657,0 -22,-7.461 -22.935,-19.722 -0.118,-1.546 -0.036,-3.111 0.215,-4.662 3.223,9.058 12.229,13.507 21.968,13.507 10.228,0 17.777,-10.383 18.306,-19.945 1.177,2.337 1.946,4.971 2.168,7.887 C 20.558,-11.978 11.652,0 0,0"
         style="fill:#57493c;fill-opacity:1;fill-rule:nonzero;stroke:none"
         id="path520"
         inkscape:connector-curvature="0" /></g><g
       id="g522"
       transform="translate(432.4922,632.0864)"
       inkscape:export-filename="C:\wamp\www\bote\app\images\advert.png"
       inkscape:export-xdpi="90"
       inkscape:export-ydpi="90"><path
         d="m 0,0 c -47.833,20.387 -88.662,13.33 -111.403,0 -44.92,-26.331 -75.305,-8.626 -75.305,-8.626 5.227,-16.728 22.732,-24.215 44.745,-27.787 44.028,-7.146 106.051,1.388 123.825,-16.909 26.661,-27.446 10.191,-91.745 10.191,-91.745 l 17.251,-1.569 c 0,0 -3.815,33.719 22.061,35.286 25.84,1.566 18.143,-59.535 18.143,-59.711 l 0,-0.004 C 86.508,-81.552 47.834,-20.388 0,0"
         style="fill:#824c41;fill-opacity:1;fill-rule:nonzero;stroke:none"
         id="path524"
         inkscape:connector-curvature="0" /></g><g
       id="g526"
       transform="translate(288.4033,454.4634)"
       inkscape:export-filename="C:\wamp\www\bote\app\images\advert.png"
       inkscape:export-xdpi="90"
       inkscape:export-ydpi="90"><path
         d="m 0,0 c -0.401,-0.053 -2.271,-0.296 -5.129,-0.569 -2.522,-1.196 -5.389,-3.537 -8.21,-7.946 -8.099,-12.658 -7.749,-22.643 1.223,-20.878 7.79,1.532 9.713,-0.718 14.713,1.243 l 0,0.007 c 5,-4.539 12.038,-4.098 14.243,-3.153 4.211,1.805 16.221,-1.203 23.44,-4.211 5.223,-2.177 11.06,-3.401 9.339,4.972 -0.657,3.2 -2.421,7.794 -5.747,14.28 C 32.053,6.792 1.094,0.24 0,0"
         style="fill:#57493c;fill-opacity:1;fill-rule:nonzero;stroke:none"
         id="path528"
         inkscape:connector-curvature="0" /></g><g
       id="g530"
       transform="translate(434.415,373.6104)"
       inkscape:export-filename="C:\wamp\www\bote\app\images\advert.png"
       inkscape:export-xdpi="90"
       inkscape:export-ydpi="90"><path
         d="M 0,0 0.175,-0.218 0.336,-0.298 0,0 Z"
         style="fill:#9b4046;fill-opacity:1;fill-rule:nonzero;stroke:none"
         id="path532"
         inkscape:connector-curvature="0" /></g><g
       id="g534"
       transform="translate(436.6895,370.5947)"
       inkscape:export-filename="C:\wamp\www\bote\app\images\advert.png"
       inkscape:export-xdpi="90"
       inkscape:export-ydpi="90"><path
         d="M 0,0 26.276,-35.211 -20.97,-75.603 32.551,-35.309 C 32.551,-35.309 11.43,-11.668 0,0"
         style="fill:#9b4046;fill-opacity:1;fill-rule:nonzero;stroke:none"
         id="path536"
         inkscape:connector-curvature="0" /></g><g
       id="g538"
       transform="translate(481.002,324.3066)"
       inkscape:export-filename="C:\wamp\www\bote\app\images\advert.png"
       inkscape:export-xdpi="90"
       inkscape:export-ydpi="90"><path
         d="m 0,0 c -8.403,-7.541 -29.001,-22.304 -45.854,-34.074 0.218,0.015 0.439,0.03 0.657,0.046 L 1.051,-4.83 C 1.694,-2.539 2.364,0.213 3.021,3.211 2.188,2.15 1.202,1.078 0,0"
         style="fill:#9b4046;fill-opacity:1;fill-rule:nonzero;stroke:none"
         id="path540"
         inkscape:connector-curvature="0" /></g><g
       id="g542"
       transform="translate(486.6592,341.4766)"
       inkscape:export-filename="C:\wamp\www\bote\app\images\advert.png"
       inkscape:export-xdpi="90"
       inkscape:export-ydpi="90"><path
         d="m 0,0 c 0.336,2.09 0.645,4.161 0.91,6.158 l -44.647,45.04 c 0,0 36.075,-40.858 38.3,-43.059 C -5.43,8.132 -5.424,8.125 -5.417,8.118 -3.844,6.583 -1.315,3.697 0,0"
         style="fill:#9b4046;fill-opacity:1;fill-rule:nonzero;stroke:none"
         id="path544"
         inkscape:connector-curvature="0" /></g><g
       id="g546"
       transform="translate(402.0498,284.7002)"
       inkscape:export-filename="C:\wamp\www\bote\app\images\advert.png"
       inkscape:export-xdpi="90"
       inkscape:export-ydpi="90"><path
         d="m 0,0 c -0.021,-0.01 -3.588,-1.687 -4.259,-3.648 1.44,-3.485 4.168,-7.82 9.29,-10.916 0.848,0.635 1.949,1.61 2.882,2.9 L -1.031,-0.776 0,0 Z"
         style="fill:#ffe2d9;fill-opacity:1;fill-rule:nonzero;stroke:none"
         id="path548"
         inkscape:connector-curvature="0" /></g><g
       id="g550"
       transform="translate(397.791,281.0518)"
       inkscape:export-filename="C:\wamp\www\bote\app\images\advert.png"
       inkscape:export-xdpi="90"
       inkscape:export-ydpi="90"><path
         d="m 0,0 c -1.358,3.286 -1.576,5.812 -1.576,5.812 -5.587,-19.996 18.232,-25.289 21.173,-20.29 -4.219,0.63 -7.596,1.923 -10.307,3.562 C 4.168,-7.819 1.44,-3.484 0,0"
         style="fill:#dfa721;fill-opacity:1;fill-rule:nonzero;stroke:none"
         id="path552"
         inkscape:connector-curvature="0" /></g><g
       id="g554"
       transform="translate(486.6592,341.4766)"
       inkscape:export-filename="C:\wamp\www\bote\app\images\advert.png"
       inkscape:export-xdpi="90"
       inkscape:export-ydpi="90"><path
         d="M 0,0 C -1.315,3.697 -3.844,6.583 -5.417,8.118 -6.228,8.909 -6.785,9.345 -6.785,9.345 L -53.49,32.624 c 1.011,-0.971 2.205,-2.164 3.52,-3.506 C -38.54,17.45 -17.419,-6.19 -17.419,-6.19 l -53.52,-40.294 -13.67,-10.292 -1.032,-0.777 8.945,-10.887 0.073,-0.09 c 0,0 11.298,7.637 25.111,17.286 16.854,11.77 37.451,26.533 45.855,34.074 1.202,1.078 2.187,2.15 3.021,3.211 C 1.401,-8.816 1.404,-3.947 0,0"
         style="fill:#cf555d;fill-opacity:1;fill-rule:nonzero;stroke:none"
         id="path556"
         inkscape:connector-curvature="0" /></g><g
       id="g558"
       transform="translate(341.8325,409.708)"
       inkscape:export-filename="C:\wamp\www\bote\app\images\advert.png"
       inkscape:export-xdpi="90"
       inkscape:export-ydpi="90"><path
         d="m 0,0 -7.02,0.73 c 1.376,13.217 30.001,21.042 95.716,26.167 l 2.753,0.216 c 10.463,0.831 29.84,1.772 46.632,1.961 33.561,0.378 36.219,-2.33 37.638,-3.786 0.953,-0.978 1.403,-2.233 1.265,-3.532 l -7.018,0.74 c -0.133,-1.267 0.603,-2.146 0.96,-2.353 -5.105,2.96 -52.105,2.065 -78.919,-0.065 L 89.245,19.861 C 77.243,18.925 54.904,17.184 35.112,13.682 2.446,7.901 0.132,1.271 0,0"
         style="fill:#ffffff;fill-opacity:1;fill-rule:nonzero;stroke:none"
         id="path560"
         inkscape:connector-curvature="0" /></g><g
       id="g562"
       transform="translate(344.7354,409.9668)"
       inkscape:export-filename="C:\wamp\www\bote\app\images\advert.png"
       inkscape:export-xdpi="90"
       inkscape:export-ydpi="90"><path
         d="M 0,0 C 3.701,-1.52 6.065,-5.342 5.665,-9.568 L -15.43,-232.454 c -0.488,-5.165 -4.97,-8.966 -10.134,-8.477 l -80.836,24.949 c -4.016,1.536 -7.691,4.221 -8.269,8.283 l -0.019,-0.152 c -0.561,-7.585 2.771,-9.153 12.993,-12.836 l 80.835,-24.948 c 5.165,-0.49 9.647,3.312 10.135,8.476 L 10.37,-14.273 C 10.885,-6.017 10.065,-1.896 0,0"
         style="fill:#653441;fill-opacity:1;fill-rule:nonzero;stroke:none"
         id="path564"
         inkscape:connector-curvature="0" /></g><g
       id="g566"
       transform="translate(329.6611,334.1094)"
       inkscape:export-filename="C:\wamp\www\bote\app\images\advert.png"
       inkscape:export-xdpi="90"
       inkscape:export-ydpi="90"><path
         d="M 0,0 -74.102,12.938 -70.181,58.027 4.777,48.226 0,0 Z m -5.881,-67.829 -74.102,17.643 5.097,46.658 73.782,-13.809 -4.777,-50.492 z m -5.881,-68.221 -74.102,21.172 5.096,47.44 73.783,-18.426 -4.777,-50.186 z m -79.564,-4.075 80.836,-24.948 c 5.164,-0.489 9.646,3.311 10.134,8.476 L 20.739,66.29 c 0.401,4.225 -1.964,8.047 -5.665,9.567 -0.823,0.338 -1.71,0.565 -2.649,0.654 l -82.309,9.364 c -5.165,0.489 -9.647,-3.312 -10.136,-8.477 l -19.62,-207.3 c -0.064,-0.68 -0.043,-1.325 0.045,-1.94 0.578,-4.061 4.253,-6.747 8.269,-8.283"
         style="fill:#ffffff;fill-opacity:1;fill-rule:nonzero;stroke:none"
         id="path568"
         inkscape:connector-curvature="0" /></g><g
       id="g570"
       transform="translate(255.5596,347.0479)"
       inkscape:export-filename="C:\wamp\www\bote\app\images\advert.png"
       inkscape:export-xdpi="90"
       inkscape:export-ydpi="90"><path
         d="M 0,0 74.102,-12.938 78.878,35.287 3.92,45.089 0,0 Z"
         style="fill:#e5e3e4;fill-opacity:1;fill-rule:nonzero;stroke:none"
         id="path572"
         inkscape:connector-curvature="0" /></g><g
       id="g574"
       transform="translate(249.6782,283.9238)"
       inkscape:export-filename="C:\wamp\www\bote\app\images\advert.png"
       inkscape:export-xdpi="90"
       inkscape:export-ydpi="90"><path
         d="M 0,0 74.102,-17.644 78.879,32.849 5.097,46.657 0,0 Z"
         style="fill:#e5e3e4;fill-opacity:1;fill-rule:nonzero;stroke:none"
         id="path576"
         inkscape:connector-curvature="0" /></g><g
       id="g578"
       transform="translate(243.7974,219.2314)"
       inkscape:export-filename="C:\wamp\www\bote\app\images\advert.png"
       inkscape:export-xdpi="90"
       inkscape:export-ydpi="90"><path
         d="M 0,0 74.102,-21.172 78.878,29.014 5.096,47.44 0,0 Z"
         style="fill:#e5e3e4;fill-opacity:1;fill-rule:nonzero;stroke:none"
         id="path580"
         inkscape:connector-curvature="0" /></g></g></svg>